<svg xmlns="http://www.w3.org/2000/svg" viewBox="0 0 358.5 38.8"><defs><style>.cls-1{fill:#efdfd8;}.cls-2{fill:#5f7e8f;}</style></defs><title>music-tab-soy</title><g id="Layer_2" data-name="Layer 2"><g id="Layer_1-2" data-name="Layer 1"><path class="cls-1" d="M312.3,29.2H346c6.9,0,12.5-6.6,12.5-14.6h0c0-8-5.6-14.6-12.5-14.6H12.5C5.6,0,0,6.6,0,14.6H0c0,8,5.6,14.6,12.5,14.6h289l-1.9,7.6c-.4,1.5,1.1,2.7,2.2,1.7Z"/><path class="cls-2" d="M268.4,8.8V19.7a1,1,0,0,0,1.6.7l6.4-5.4a1,1,0,0,0,0-1.5L270,8.1A1,1,0,0,0,268.4,8.8Z"/><path class="cls-2" d="M280,8.8V19.7a1,1,0,0,0,1.6.7l6.4-5.4a1,1,0,0,0,0-1.5l-6.4-5.4A1,1,0,0,0,280,8.8Z"/><path class="cls-2" d="M169.6,8.8V19.7a1,1,0,0,0,1.6.7l6.4-5.4a1,1,0,0,0,0-1.5l-6.4-5.4A1,1,0,0,0,169.6,8.8Z"/><rect class="cls-2" x="181.6" y="7.9" width="2.5" height="12.79" rx="1.1" ry="1.1"/><rect class="cls-2" x="186.5" y="7.9" width="2.5" height="12.79" rx="1.1" ry="1.1"/><path class="cls-2" d="M90.1,19.7V8.8a1,1,0,0,0-1.6-.7l-6.4,5.4a1,1,0,0,0,0,1.5l6.4,5.4A1,1,0,0,0,90.1,19.7Z"/><path class="cls-2" d="M78.5,19.7V8.8a1,1,0,0,0-1.6-.7l-6.4,5.4a1,1,0,0,0,0,1.5l6.4,5.4A1,1,0,0,0,78.5,19.7Z"/></g></g></svg>