<?xml version="1.0" standalone="no"?>
<!DOCTYPE svg PUBLIC "-//W3C//DTD SVG 20010904//EN"
 "http://www.w3.org/TR/2001/REC-SVG-20010904/DTD/svg10.dtd">
<svg version="1.0" xmlns="http://www.w3.org/2000/svg"
 width="122.000000pt" height="122.000000pt" viewBox="0 0 122.000000 122.000000"
 preserveAspectRatio="xMidYMid meet">
<metadata>
Created by potrace 1.11, written by Peter Selinger 2001-2013
</metadata>
<g transform="translate(0.000000,122.000000) scale(0.100000,-0.100000)"
fill="#000000" stroke="none">
<path d="M556 1203 c-5 -11 7 -31 39 -63 l45 -46 -98 -97 -98 -97 2 92 c2 88
-3 107 -28 108 -5 0 -8 -52 -8 -115 l0 -115 -110 1 c-61 1 -113 0 -115 -3 -3
-3 -3 -12 0 -20 5 -12 25 -14 95 -13 50 1 90 -1 90 -4 0 -3 -70 -76 -156 -162
-136 -136 -153 -157 -139 -169 13 -11 22 -6 60 35 53 55 39 60 162 -62 l82
-83 -93 0 c-91 0 -106 -5 -106 -36 0 -2 52 -4 115 -4 l115 0 0 -110 c0 -100 2
-110 18 -110 16 0 18 9 19 72 1 40 1 83 2 96 1 18 32 -9 161 -137 133 -133
161 -157 171 -145 10 12 4 24 -36 64 l-48 49 97 97 96 98 0 -97 c0 -90 1 -97
20 -97 19 0 20 7 20 110 l0 110 108 0 c60 0 111 3 115 6 3 3 3 12 0 20 -4 12
-64 14 -354 14 -192 0 -349 3 -350 8 -1 4 -2 102 -3 219 -1 181 1 212 14 215
8 2 167 3 352 3 257 0 339 3 342 12 8 21 -12 25 -120 25 l-104 -1 0 114 c0
102 -2 113 -17 111 -15 -2 -18 -16 -21 -94 -1 -51 -4 -92 -6 -92 -2 0 -73 70
-157 155 -85 85 -157 155 -160 155 -4 0 -10 -8 -13 -17z m214 -238 l95 -95
-193 0 c-156 0 -191 3 -185 13 15 24 168 175 178 176 6 1 53 -42 105 -94z
m-360 -357 l0 -193 -99 99 -99 99 94 93 c52 52 97 94 99 94 3 0 5 -87 5 -192z
m357 -355 l-97 -98 -97 98 -98 97 195 0 195 0 -98 -97z"/>
<path d="M937 754 c-4 -12 -4 -32 1 -44 8 -22 9 -22 14 -4 2 10 1 30 -2 44 -6
24 -7 24 -13 4z"/>
<path d="M497 739 c-3 -11 -3 -27 0 -35 6 -15 43 -20 43 -5 0 5 -6 8 -12 7
-14 -1 -18 5 -18 30 0 10 6 14 15 10 8 -3 15 -1 15 4 0 20 -38 10 -43 -11z"/>
<path d="M562 726 c1 -19 6 -32 10 -30 5 3 6 10 3 15 -4 5 1 9 9 9 8 0 16 -8
18 -17 3 -13 6 -10 9 9 4 15 2 33 -2 40 -7 10 -9 9 -9 -4 0 -10 -7 -18 -16
-18 -8 0 -13 4 -9 9 3 5 1 13 -5 16 -7 4 -10 -6 -8 -29z"/>
<path d="M623 725 c-1 -19 3 -35 7 -35 4 0 7 16 7 35 -1 19 -4 35 -7 35 -3 0
-6 -16 -7 -35z"/>
<path d="M661 729 c-6 -18 -11 -32 -11 -33 0 -1 13 -1 28 -1 28 0 28 1 19 33
-13 40 -22 41 -36 1z m24 2 c3 -5 1 -12 -5 -16 -5 -3 -10 1 -10 9 0 18 6 21
15 7z"/>
<path d="M716 729 c3 -36 14 -52 14 -20 l0 23 20 -23 19 -24 -1 40 c0 24 -2
31 -5 16 l-5 -23 -14 21 c-21 29 -31 26 -28 -10z"/>
<path d="M793 749 c-5 -5 -8 -21 -5 -35 3 -19 10 -24 26 -22 24 3 28 29 6 36
-13 5 -13 3 -1 -11 12 -15 11 -17 -3 -17 -11 0 -16 9 -16 26 0 19 4 25 15 20
8 -3 15 -1 15 4 0 13 -23 13 -37 -1z"/>
<path d="M891 725 c1 -35 2 -37 9 -15 5 17 8 19 9 8 1 -10 6 -18 11 -18 16 0
12 16 -10 41 l-19 24 0 -40z"/>
<path d="M973 726 c-9 -28 -8 -34 3 -29 8 3 14 15 14 27 1 18 3 16 15 -9 16
-37 19 -29 4 14 -14 40 -23 39 -36 -3z"/>
<path d="M1038 736 c-3 -14 -1 -31 3 -38 6 -8 9 1 9 25 0 42 -6 48 -12 13z"/>
<path d="M500 616 c0 -19 4 -37 9 -41 6 -3 7 9 4 31 -5 29 -3 36 8 32 8 -3 14
-17 14 -31 -1 -15 3 -27 7 -27 4 0 8 9 8 20 0 11 4 20 8 20 5 0 8 -10 8 -21
-1 -23 29 -35 41 -17 3 6 2 8 -3 5 -6 -3 -16 -2 -24 3 -12 7 -11 10 5 16 18 7
18 8 -1 15 -18 6 -17 8 6 17 22 9 23 11 5 11 -12 1 -26 -4 -32 -10 -8 -8 -13
-8 -17 0 -4 6 -16 11 -27 11 -15 0 -19 -7 -19 -34z"/>
<path d="M631 636 c-10 -12 -8 -17 9 -26 11 -6 18 -15 15 -21 -4 -5 -12 -6
-18 -3 -9 5 -9 4 -1 -5 7 -8 17 -8 37 1 20 10 27 20 27 43 0 21 -3 26 -9 16
-5 -8 -7 -20 -4 -28 6 -16 -7 -16 -29 1 -13 10 -15 15 -6 24 8 8 8 12 1 12 -6
0 -16 -6 -22 -14z"/>
<path d="M722 633 c-16 -31 7 -67 35 -56 16 6 17 29 1 39 -8 5 -9 2 -5 -9 4
-11 1 -17 -8 -17 -8 0 -15 9 -15 20 0 14 7 20 23 20 18 0 19 2 7 10 -21 14
-28 12 -38 -7z"/>
<path d="M788 638 c-4 -8 2 -20 13 -26 22 -14 25 -4 6 22 -11 16 -15 16 -19 4z"/>
<path d="M827 618 c-3 -18 -1 -37 4 -42 5 -6 9 7 9 32 0 50 -6 54 -13 10z"/>
<path d="M891 633 c-1 -27 8 -53 20 -53 5 0 9 9 9 21 0 11 -4 18 -9 14 -5 -3
-12 5 -14 17 -4 22 -4 23 -6 1z"/>
<path d="M921 640 c0 -8 6 -28 13 -45 l12 -30 11 43 c6 23 7 42 2 42 -5 0 -9
-10 -9 -22 -1 -23 -1 -23 -15 2 -8 14 -14 19 -14 10z"/>
<path d="M977 635 c-6 -15 -1 -54 8 -63 3 -3 5 4 5 16 0 11 6 23 13 25 10 4
10 6 0 6 -19 1 -16 19 5 24 13 4 12 5 -4 6 -12 0 -24 -6 -27 -14z"/>
<path d="M1038 633 c-2 -10 -2 -28 1 -40 l6 -22 12 24 c6 14 7 25 2 25 -16 0
-9 18 9 23 13 4 13 5 -4 6 -13 1 -23 -6 -26 -16z"/>
<path d="M1103 610 c0 -25 2 -35 4 -22 5 23 5 23 25 5 20 -18 21 -18 10 2 -7
15 -7 26 0 40 11 19 11 20 -10 2 -20 -18 -20 -18 -25 0 -3 10 -5 -2 -4 -27z"/>
<path d="M783 595 c0 -8 4 -15 9 -15 4 0 8 7 8 15 0 8 -4 15 -8 15 -5 0 -9 -7
-9 -15z"/>
<path d="M1000 579 c0 -5 5 -7 10 -4 6 3 10 8 10 11 0 2 -4 4 -10 4 -5 0 -10
-5 -10 -11z"/>
<path d="M1060 579 c0 -5 5 -7 10 -4 6 3 10 8 10 11 0 2 -4 4 -10 4 -5 0 -10
-5 -10 -11z"/>
<path d="M510 529 c0 -5 5 -7 10 -4 15 9 12 -8 -6 -33 -14 -21 -14 -22 8 -22
17 0 19 3 9 9 -9 6 -10 11 -2 15 16 11 13 46 -4 46 -8 0 -15 -5 -15 -11z"/>
<path d="M559 533 c0 -4 -2 -15 -4 -24 -4 -24 11 -43 30 -36 22 9 16 61 -7 65
-10 2 -18 0 -19 -5z m31 -28 c0 -14 -4 -25 -10 -25 -5 0 -10 11 -10 25 0 14 5
25 10 25 6 0 10 -11 10 -25z"/>
<path d="M618 505 c2 -19 6 -35 8 -35 2 0 4 16 4 35 0 19 -4 35 -8 35 -4 0 -6
-16 -4 -35z"/>
<path d="M660 505 c0 -29 3 -36 18 -33 11 2 17 13 17 33 0 20 -6 31 -17 33
-15 3 -18 -4 -18 -33z m25 -15 c3 -5 1 -10 -4 -10 -6 0 -11 5 -11 10 0 6 2 10
4 10 3 0 8 -4 11 -10z"/>
</g>
</svg>
