<svg xmlns="http://www.w3.org/2000/svg" viewBox="0 0 29.5 22.1"><defs><style>.cls-1{fill:#385671;}</style></defs><title>quote-left</title><g id="Layer_2" data-name="Layer 2"><g id="Layer_1-2" data-name="Layer 1"><path class="cls-1" d="M6.9,10.9a5.3,5.3,0,0,1,4.2,1.6,5.6,5.6,0,0,1,1.4,3.9,5.7,5.7,0,0,1-1.6,4.1,6,6,0,0,1-4.5,1.7,6.5,6.5,0,0,1-4.6-1.6A6.2,6.2,0,0,1,0,15.7,16.7,16.7,0,0,1,2.5,7.2,25.5,25.5,0,0,1,8.8,0l1.5,1.5Q5.5,6.5,5.5,11Zm17,0A5.3,5.3,0,0,1,28,12.4a5.6,5.6,0,0,1,1.4,3.9,5.7,5.7,0,0,1-1.6,4.1,6,6,0,0,1-4.5,1.7,6.5,6.5,0,0,1-4.6-1.6A6.2,6.2,0,0,1,17,15.7a16.7,16.7,0,0,1,2.5-8.5A25.5,25.5,0,0,1,25.8,0l1.5,1.5q-4.7,5-4.7,9.4Z"/></g></g></svg>