<svg xmlns="http://www.w3.org/2000/svg" viewBox="0 0 29.5 22.1"><defs><style>.cls-1{fill:#385671;}</style></defs><title>quote-right</title><g id="Layer_2" data-name="Layer 2"><g id="Layer_1-2" data-name="Layer 1"><path class="cls-1" d="M5.6,11.2A5.3,5.3,0,0,1,1.4,9.7,5.6,5.6,0,0,1,0,5.8,5.7,5.7,0,0,1,1.6,1.7,6,6,0,0,1,6.1,0a6.5,6.5,0,0,1,4.6,1.6,6.2,6.2,0,0,1,1.7,4.8,16.7,16.7,0,0,1-2.5,8.5,25.5,25.5,0,0,1-6.2,7.2L2.2,20.6Q7,15.6,7,11.2Zm17,0a5.3,5.3,0,0,1-4.2-1.6A5.6,5.6,0,0,1,17,5.8a5.7,5.7,0,0,1,1.6-4.1A6,6,0,0,1,23.1,0a6.5,6.5,0,0,1,4.6,1.6,6.2,6.2,0,0,1,1.7,4.8,16.7,16.7,0,0,1-2.5,8.5,25.5,25.5,0,0,1-6.2,7.2l-1.5-1.5q4.7-5,4.7-9.4Z"/></g></g></svg>