<?xml version="1.0" encoding="UTF-8" standalone="no"?>
<svg width="9px" height="5px" viewBox="0 0 9 5" version="1.1" xmlns="http://www.w3.org/2000/svg" xmlns:xlink="http://www.w3.org/1999/xlink">
    <!-- Generator: Sketch 49.3 (51167) - http://www.bohemiancoding.com/sketch -->
    <title>Shape</title>
    <desc>Created with Sketch.</desc>
    <defs></defs>
    <g id="Page-1" stroke="none" stroke-width="1" fill="none" fill-rule="evenodd">
        <g id="dropdown" fill="#c9c9c9" fill-rule="nonzero">
            <path d="M8.44556886,0.524281437 L8.01820359,0.0969461078 C7.96125749,0.0398802395 7.89565868,0.0114371257 7.82149701,0.0114371257 C7.74751497,0.0114371257 7.68194611,0.0398802395 7.625,0.0969461078 L4.2654491,3.45631737 L0.906047904,0.0970359281 C0.849071856,0.0399700599 0.783502994,0.0115269461 0.709431138,0.0115269461 C0.635329341,0.0115269461 0.569760479,0.0399700599 0.512814371,0.0970359281 L0.085508982,0.524401198 C0.0284431138,0.581347305 0,0.646916168 0,0.721017964 C0,0.79505988 0.0285329341,0.860628743 0.085508982,0.91757485 L4.06883234,4.90098802 C4.12577844,4.95796407 4.19137725,4.98643713 4.2654491,4.98643713 C4.33952096,4.98643713 4.405,4.95796407 4.46191617,4.90098802 L8.44556886,0.91757485 C8.50251497,0.860598802 8.53080838,0.79502994 8.53080838,0.721017964 C8.53080838,0.646916168 8.50251497,0.581347305 8.44556886,0.524281437 Z" id="Shape"></path>
        </g>
    </g>
</svg>