<svg xmlns="http://www.w3.org/2000/svg" viewBox="0 0 453.8 279.2"><defs><style>.cls-1{fill:#efdfd8;}.cls-2{fill:#2b4349;}.cls-3{fill:#1c2531;}.cls-4,.cls-5,.cls-9{fill:none;stroke-miterlimit:10;}.cls-4,.cls-5{stroke:#99a2aa;}.cls-4{stroke-width:4px;}.cls-5{stroke-width:2px;}.cls-6{fill:#5f7e8f;}.cls-7{fill:#ebd7d3;}.cls-8{fill:#c9806c;}.cls-9{stroke:#fcf8f4;stroke-width:3px;}</style></defs><title>i1_1</title><g id="Layer_2" data-name="Layer 2"><g id="Layer_1-2" data-name="Layer 1"><rect class="cls-1" x="124.9" y="13" width="272.4" height="57.8" rx="24.4" ry="24.4"/><path class="cls-2" d="M210.1,53.2l.8-.2.5-.2a.5.5,0,0,0,.1-.4V37.9a.5.5,0,0,0-.1-.4l-.5-.2-.8-.2v-.4l5.8-.7h.4v1.4a6.7,6.7,0,0,1,4.2-1.3,6,6,0,0,1,4.3,1.5,5.9,5.9,0,0,1,1.6,4.6,6.3,6.3,0,0,1-1.6,4.7,5.8,5.8,0,0,1-4.3,1.5,5.4,5.4,0,0,1-4.2-1.6v5.6a.5.5,0,0,0,.1.4l.5.2.8.2v.4h-7.7Zm6.3-15.1V46a4.7,4.7,0,0,0,1.3,1,3.1,3.1,0,0,0,1.5.4,1.8,1.8,0,0,0,1.4-.5,3.3,3.3,0,0,0,.7-1.7,17.7,17.7,0,0,0,.2-3,10,10,0,0,0-.5-3.8,1.9,1.9,0,0,0-1.9-1.2A4,4,0,0,0,216.4,38.1Z"/><path class="cls-2" d="M228.1,47.7l.8-.2.5-.2a.5.5,0,0,0,.1-.4V32.4a.5.5,0,0,0-.1-.4l-.5-.2-.8-.2v-.4l5.8-.7h.5V47a.5.5,0,0,0,.1.4l.5.2.8.2v.4h-7.7Z"/><path class="cls-2" d="M245.5,47.9a1.3,1.3,0,0,1-.3-.9h0a6.4,6.4,0,0,1-4.6,1.6,3.8,3.8,0,0,1-2.5-.7,2.7,2.7,0,0,1-.9-2.2,3.1,3.1,0,0,1,.9-2.3,5.2,5.2,0,0,1,2.6-1.2,25.4,25.4,0,0,1,4.5-.4V39.7a2.9,2.9,0,0,0-.5-1.9,2.4,2.4,0,0,0-1.9-.6,6.8,6.8,0,0,0-2.1.3l-1.9.9-.3-.5a9.7,9.7,0,0,1,2.8-1.3,12.6,12.6,0,0,1,3.7-.5,5.7,5.7,0,0,1,3.9,1.1,4,4,0,0,1,1.2,3.1V47a.5.5,0,0,0,.1.4l.5.2.8.2v.4h-5A1.3,1.3,0,0,1,245.5,47.9Zm-.3-1.8V42.2a6.1,6.1,0,0,0-2.1.4,1.8,1.8,0,0,0-1,.9,4.3,4.3,0,0,0-.3,1.6,2.2,2.2,0,0,0,.3,1.3,1.2,1.2,0,0,0,1,.4A2.7,2.7,0,0,0,245.3,46.1Z"/><path class="cls-2" d="M259,36.9c-.4.1-.6.2-.6.5v.4l2.8,5.6,2.6-6.1V37l-.3-.2h-.6v-.4h2.8v.4h-1l-.2.3-4.7,10.8a32.2,32.2,0,0,1-1.6,3.3,5.3,5.3,0,0,1-1.4,1.6,5.7,5.7,0,0,1-2,.9l-1.3-3.7a11.9,11.9,0,0,0,3.1-.5,9.8,9.8,0,0,0,2.5-1.2l-5.8-11.1-.3-.3h-.4l-.7-.2v-.4h7.6v.4Z"/><path class="cls-2" d="M273.1,46.1a3.3,3.3,0,0,0,3.1,1.4,5.6,5.6,0,0,0,2-.3l1.8-1,.3.5a9.1,9.1,0,0,1-5.9,1.8,7.9,7.9,0,0,1-5.3-1.6,5.8,5.8,0,0,1-1.9-4.7,5.4,5.4,0,0,1,2-4.5,8.7,8.7,0,0,1,5.5-1.5,8.1,8.1,0,0,1,3.4.6,4.6,4.6,0,0,1,2,1.7,4.3,4.3,0,0,1,.7,2.3,5.7,5.7,0,0,1-.1,1.2h-8.4A8.2,8.2,0,0,0,273.1,46.1Zm-.3-8.2a9.7,9.7,0,0,0-.5,3.5h4.1V39.6a4.9,4.9,0,0,0-.4-2.2,1.4,1.4,0,0,0-1.4-.7A1.8,1.8,0,0,0,272.7,37.8Z"/><path class="cls-2" d="M293,36.2l1.3.2-.4,3.8h-.2l-5-1.1V47a.5.5,0,0,0,.1.4l.4.2.8.2v.4h-7.6v-.4l.8-.2.5-.2a.5.5,0,0,0,.1-.4V37.9a.5.5,0,0,0-.1-.4l-.5-.2-.8-.2v-.4l5.8-.7h.4v2.4A6.1,6.1,0,0,1,293,36.2Z"/><path class="cls-2" d="M303.5,33.3v-.5a25.6,25.6,0,0,0,6.9-1.8l.5.2V46.9a.5.5,0,0,0,.1.4l.4.2,1.7.2v.5h-9.7v-.5l1.9-.2.5-.2a.5.5,0,0,0,.1-.4V33.3Z"/><path class="cls-3" d="M75.7,119.9a75.7,75.7,0,1,0,0,151.5m0-61.7a14,14,0,0,1,0-28.1"/><path class="cls-4" d="M75.7,264.1a68.4,68.4,0,1,1,0-136.8"/><path class="cls-4" d="M75.7,260.1a64.4,64.4,0,0,1,0-128.9"/><path class="cls-5" d="M75.7,225.3a29.6,29.6,0,0,1,0-59.2"/><path class="cls-1" d="M76.2,109.2H445.9a8,8,0,0,1,8,8V271.3a7.9,7.9,0,0,1-7.9,7.9H81a8,8,0,0,1-8-8V112.4a3.2,3.2,0,0,1,3.2-3.2Z"/><polygon class="cls-1" points="274.2 109.3 252.7 109.3 263.5 90.6 274.2 109.3"/><path class="cls-6" d="M141.4,172.6v14h-3.2v-14Z"/><path class="cls-6" d="M151.9,173.8l2.6-1.6a5,5,0,0,1,2.9,1.6,4.6,4.6,0,0,1,.9,3v9.7h-3.2v-9.7q0-1.5-1.1-1.7l-2.1,1.2-2-1.1a3.3,3.3,0,0,0-1.5,1.7,8.3,8.3,0,0,0-.3,5,4.1,4.1,0,0,0,.7,1.4,2.5,2.5,0,0,0,.9.7l1,.2h.9l.9-.3.6,2.3-1.2.5-1.6.2a6.1,6.1,0,0,1-2.2-.4,5,5,0,0,1-1.9-1.3,6.3,6.3,0,0,1-1.3-2.2,10.3,10.3,0,0,1-.1-5.7,8.2,8.2,0,0,1,1-2.2,6.6,6.6,0,0,1,1.5-1.7,5.7,5.7,0,0,1,2.1-1Z"/><path class="cls-6" d="M166.4,184.2a4.4,4.4,0,0,0,2-.4,1.2,1.2,0,0,0,.7-1.1,1.2,1.2,0,0,0-.3-.8l-.7-.6-1-.4-1.1-.4-1.8-.7-1.5-.9a4.1,4.1,0,0,1-1-1.2,3.6,3.6,0,0,1-.4-1.7,3.1,3.1,0,0,1,.4-1.5,3.9,3.9,0,0,1,1.1-1.2,5.3,5.3,0,0,1,1.7-.8,7.4,7.4,0,0,1,2.1-.3,10.2,10.2,0,0,1,2.8.3l2.3.9-.8,2.3a7.4,7.4,0,0,0-2-.7l-2.1-.2a4,4,0,0,0-1.6.3,1,1,0,0,0-.6.9,1.3,1.3,0,0,0,.8,1.1l2.1.9,1.9.7,1.5.9a3.6,3.6,0,0,1,.9,1.3,4.3,4.3,0,0,1,.3,1.7,3.8,3.8,0,0,1-.3,1.6,3.6,3.6,0,0,1-1,1.3,5,5,0,0,1-1.7.8,9.1,9.1,0,0,1-2.5.3,11.8,11.8,0,0,1-2.8-.3,8.6,8.6,0,0,1-2.3-.9l.8-2.5,1.9.8Z"/><path class="cls-6" d="M160.7,170.8v-2.4h8.5V166h2.9v4.8Z"/><path class="cls-6" d="M184.4,172.6h3.2v8.6a6.9,6.9,0,0,1-.4,2.3,4.5,4.5,0,0,1-1.2,1.8,5.4,5.4,0,0,1-2.1,1.2,10.1,10.1,0,0,1-3.1.4,8.8,8.8,0,0,1-2.3-.3,5.2,5.2,0,0,1-1.8-.9,4,4,0,0,1-1.2-1.5,4.7,4.7,0,0,1-.4-2.1,3.1,3.1,0,0,1,.7-2.1,3,3,0,0,1,1.8-1.1l-.9-.4-.8-.7a3.5,3.5,0,0,1-.6-1,3.3,3.3,0,0,1-.2-1.2,3.3,3.3,0,0,1,.3-1.3,3.1,3.1,0,0,1,.7-1.1,3.6,3.6,0,0,1,1.2-.7l1.6-.3h1.7l1.2.4-.3,2.4-.8-.2H180a2,2,0,0,0-1.3.3,1.1,1.1,0,0,0-.4.9,1.3,1.3,0,0,0,.5,1.1,2,2,0,0,0,1.2.4H182l.3,2.5h-1.7a2.3,2.3,0,0,0-1.6.5,1.7,1.7,0,0,0-.6,1.4,1.9,1.9,0,0,0,.7,1.6,3,3,0,0,0,1.9.6,3.4,3.4,0,0,0,2.5-.8,3.1,3.1,0,0,0,.8-2.3Z"/><path class="cls-6" d="M200.4,172.6h3.2v9a5.6,5.6,0,0,1-1.3,4,4.6,4.6,0,0,1-3.5,1.3l-1.3-.2-1.2-.5-1-.6-.7-.7-.3,1.7h-2.9v-14h3.2V182l.6.9.8.7,1,.5,1,.2q2.3,0,2.3-2.9Z"/><path class="cls-6" d="M217.1,186.5v-8.5a3.2,3.2,0,0,0-.9-2.3,3.2,3.2,0,0,0-2.4-.9,3.3,3.3,0,0,0-2.8,1.3,5.8,5.8,0,0,0-1,3.6,7.1,7.1,0,0,0,.3,2.1,4.1,4.1,0,0,0,.7,1.4,2.5,2.5,0,0,0,.9.7l1,.2h.9l.9-.3.6,2.3-1.2.5-1.6.2a5.9,5.9,0,0,1-2.2-.4,5.2,5.2,0,0,1-1.9-1.3,6.2,6.2,0,0,1-1.3-2.2,10,10,0,0,1,0-6.1,7.1,7.1,0,0,1,1.3-2.4,6.1,6.1,0,0,1,2.2-1.6,7.3,7.3,0,0,1,3-.6,8.2,8.2,0,0,1,2.8.4,5.8,5.8,0,0,1,2,1.2,5.2,5.2,0,0,1,1.2,1.9,6.2,6.2,0,0,1,.4,2.3v8.4Z"/><path class="cls-6" d="M227,181q-.4,0-.5.5h0q0,2.7,3,2.7a3.5,3.5,0,0,0,2.8-1.2,5.5,5.5,0,0,0,1-3.7,4.7,4.7,0,0,0-1.1-3.4,3.8,3.8,0,0,0-2.9-1.2,6.8,6.8,0,0,0-2.7.5,10.6,10.6,0,0,0-2.2,1.3l-1-2.4a12.3,12.3,0,0,1,2.6-1.4,9.7,9.7,0,0,1,3.6-.6,8.2,8.2,0,0,1,2.8.5,6.2,6.2,0,0,1,2.2,1.4,6.3,6.3,0,0,1,1.4,2.3,8.7,8.7,0,0,1,.5,3.1q0,3.7-1.8,5.5a6.8,6.8,0,0,1-5,1.8,9.4,9.4,0,0,1-2.8-.4,5.3,5.3,0,0,1-2-1.1,4.5,4.5,0,0,1-1.2-1.7,5.6,5.6,0,0,1-.4-2.1v-.4a3,3,0,0,1,.6-2,2.5,2.5,0,0,1,1.9-.7h3.2V181Z"/><path class="cls-6" d="M248.7,186.5v-8.7a2.9,2.9,0,0,0-.8-2.2,3.1,3.1,0,0,0-2.2-.7h-1l-.9.4-.8.5-.5.6,2.1,1.8a2.4,2.4,0,0,0-1.2.8,2.6,2.6,0,0,0-.4,1.5v5.9h-3.2v-5.8a2.7,2.7,0,0,1,.4-1.4,2.8,2.8,0,0,1,.9-1l-2-1.6a4.9,4.9,0,0,1,.9-1.6,6.8,6.8,0,0,1,1.5-1.4,7.7,7.7,0,0,1,4.4-1.4,7.8,7.8,0,0,1,2.6.4,5.5,5.5,0,0,1,1.9,1.1,4.9,4.9,0,0,1,1.2,1.8,6.1,6.1,0,0,1,.4,2.3v8.7Z"/><path class="cls-6" d="M256.7,186.5v-16a6.2,6.2,0,0,1,.6-2.8,3.7,3.7,0,0,1,1.7-1.7h-4.8v-2.6h8.2v2.3a3.5,3.5,0,0,0-1.8,1.7,6.3,6.3,0,0,0-.6,2.7v16.2Z"/><path class="cls-6" d="M272.8,172.6H276v9a5.6,5.6,0,0,1-1.3,4,4.6,4.6,0,0,1-3.5,1.3l-1.3-.2-1.2-.5-1-.6-.7-.7-.3,1.7h-2.9v-14h3.2V182l.6.9.8.7,1,.5,1,.2q2.3,0,2.3-2.9Z"/><path class="cls-6" d="M273.8,167.9c0,.3.1.4.3.4h2.9v2.5h-4.4a1.3,1.3,0,0,1-.9-.3,1.1,1.1,0,0,1-.4-.9V169q0-.4-.3-.4h-1.5V166h2.7a1.9,1.9,0,0,1,1.2.3,1.3,1.3,0,0,1,.4,1.1Z"/><path class="cls-6" d="M289.6,177.5a3.7,3.7,0,0,0-.4-2,1.6,1.6,0,0,0-1.5-.7,4.5,4.5,0,0,0-2.2.6,6.8,6.8,0,0,0-1.9,1.5v9.6h-3.2v-14h2.9l.3,1.7a11.4,11.4,0,0,1,2.1-1.4,5.7,5.7,0,0,1,2.7-.6,4.2,4.2,0,0,1,3.2,1.3,5.4,5.4,0,0,1,1.2,3.8v9.2h-3.2Z"/><path class="cls-6" d="M281.9,170.8v-2.4h8.5V166h2.9v4.8Z"/><path class="cls-6" d="M290.9,164.6v-4.1h2.9v4.1Z"/><path class="cls-6" d="M306,186.5v-6.1h-3a5.1,5.1,0,0,0-2.2.4,1.5,1.5,0,0,0-.8,1.5,1.8,1.8,0,0,0,.6,1.4,2.1,2.1,0,0,0,1.4.5h.9l1-.3.5,2.4-1.3.4h-1.5l-1.9-.3a4.3,4.3,0,0,1-1.5-.8,3.9,3.9,0,0,1-1-1.4,4.6,4.6,0,0,1-.4-1.9,3.8,3.8,0,0,1,1.6-3.4,9,9,0,0,1,4.9-1.1H306v-.5a3,3,0,0,0-.2-1,2.5,2.5,0,0,0-.5-.9l-.9-.6-1.3-.2a7.5,7.5,0,0,0-2.7.4,9.5,9.5,0,0,0-2.2,1.2l-1-2.2a10.3,10.3,0,0,1,6-1.9h1.1l1,.3.8-1h3.6l-2,2.4a5.3,5.3,0,0,1,1,1.6,4.8,4.8,0,0,1,.4,1.8v9.1Z"/><path class="cls-6" d="M312.7,183l1.9.8a6.3,6.3,0,0,0,2.1.4,3.3,3.3,0,0,0,2.7-1.2,5.6,5.6,0,0,0,.9-3.5,5.3,5.3,0,0,0-1-3.6,3.4,3.4,0,0,0-2.7-1.1,5.9,5.9,0,0,0-2,.3,8.1,8.1,0,0,0-1.9,1l-.7-2.4a9.3,9.3,0,0,1,2.3-1.1,8.7,8.7,0,0,1,2.6-.4,6.4,6.4,0,0,1,4.9,1.8,7.4,7.4,0,0,1,1.7,5.3q0,3.7-1.8,5.6a6.4,6.4,0,0,1-4.9,1.9,11.3,11.3,0,0,1-2.8-.3,6.3,6.3,0,0,1-2.2-.9Z"/><path class="cls-6" d="M335.2,172.6h3.2v8.6a6.9,6.9,0,0,1-.4,2.3,4.5,4.5,0,0,1-1.2,1.8,5.4,5.4,0,0,1-2.1,1.2,10.1,10.1,0,0,1-3.1.4,8.8,8.8,0,0,1-2.3-.3,5.2,5.2,0,0,1-1.8-.9,4,4,0,0,1-1.2-1.5,4.7,4.7,0,0,1-.4-2.1,3.1,3.1,0,0,1,.7-2.1,3,3,0,0,1,1.8-1.1l-.9-.4-.8-.7a3.5,3.5,0,0,1-.6-1,3.3,3.3,0,0,1-.2-1.2,3.3,3.3,0,0,1,.3-1.3,3.1,3.1,0,0,1,.7-1.1,3.6,3.6,0,0,1,1.2-.7l1.6-.3h1.7l1.2.4-.3,2.4-.8-.2h-.7a2,2,0,0,0-1.3.3,1.1,1.1,0,0,0-.4.9,1.3,1.3,0,0,0,.5,1.1,2,2,0,0,0,1.2.4h1.9l.3,2.5h-1.7a2.3,2.3,0,0,0-1.6.5,1.7,1.7,0,0,0-.6,1.4,1.9,1.9,0,0,0,.7,1.6,3,3,0,0,0,1.9.6,3.4,3.4,0,0,0,2.5-.8,3.1,3.1,0,0,0,.8-2.3Z"/><path class="cls-6" d="M351.5,177.5a3.7,3.7,0,0,0-.4-2,1.6,1.6,0,0,0-1.5-.7,4.5,4.5,0,0,0-2.2.6,6.8,6.8,0,0,0-1.9,1.5v9.6h-3.2v-14h2.9l.3,1.7a11.4,11.4,0,0,1,2.1-1.4,5.7,5.7,0,0,1,2.7-.6,4.2,4.2,0,0,1,3.2,1.3,5.4,5.4,0,0,1,1.2,3.8v9.2h-3.2Z"/><path class="cls-6" d="M343.9,170.8v-2.4h8.5V166h2.9v4.8Z"/><path class="cls-6" d="M352.8,164.6v-4.1h2.9v4.1Z"/><path class="cls-6" d="M368,186.5v-6.1h-3a5.1,5.1,0,0,0-2.2.4,1.5,1.5,0,0,0-.8,1.5,1.8,1.8,0,0,0,.6,1.4,2.1,2.1,0,0,0,1.4.5h.9l1-.3.5,2.4-1.3.4h-1.5l-1.9-.3a4.3,4.3,0,0,1-1.5-.8,3.9,3.9,0,0,1-1-1.4,4.6,4.6,0,0,1-.4-1.9,3.8,3.8,0,0,1,1.6-3.4,9,9,0,0,1,4.9-1.1H368v-.5a3,3,0,0,0-.2-1,2.5,2.5,0,0,0-.5-.9l-.9-.6-1.3-.2a7.5,7.5,0,0,0-2.7.4,9.5,9.5,0,0,0-2.2,1.2l-1-2.2a10.3,10.3,0,0,1,6-1.9h1.1l1,.3.8-1h3.6l-2,2.4a5.3,5.3,0,0,1,1,1.6,4.8,4.8,0,0,1,.4,1.8v9.1Z"/><path class="cls-6" d="M368.7,191.2a.5.5,0,0,0-.6-.6h-.9v-2.4h2.1a2.7,2.7,0,0,1,1.8.5,2.2,2.2,0,0,1,.6,1.7v3.1h-2.9Z"/><path class="cls-6" d="M385,186.5v-8.5a3.2,3.2,0,0,0-.9-2.3,3.2,3.2,0,0,0-2.4-.9,3.3,3.3,0,0,0-2.8,1.3,5.8,5.8,0,0,0-1,3.6,7.1,7.1,0,0,0,.3,2.1,4.1,4.1,0,0,0,.7,1.4,2.5,2.5,0,0,0,.9.7l1,.2h.9l.9-.3.6,2.3-1.2.5-1.6.2a5.9,5.9,0,0,1-2.2-.4,5.2,5.2,0,0,1-1.9-1.3,6.2,6.2,0,0,1-1.3-2.2,10,10,0,0,1,0-6.1,7.1,7.1,0,0,1,1.3-2.4,6.1,6.1,0,0,1,2.2-1.6,7.3,7.3,0,0,1,3-.6,8.2,8.2,0,0,1,2.8.4,5.8,5.8,0,0,1,2,1.2,5.2,5.2,0,0,1,1.2,1.9,6.2,6.2,0,0,1,.4,2.3v8.4Z"/><path class="cls-6" d="M197.3,215.8a3.7,3.7,0,0,0-.4-2,1.6,1.6,0,0,0-1.5-.7,4.5,4.5,0,0,0-2.2.6,6.8,6.8,0,0,0-1.9,1.5v9.6h-3.2v-14H191l.3,1.7a11.4,11.4,0,0,1,2.1-1.4,5.7,5.7,0,0,1,2.7-.6,4.2,4.2,0,0,1,3.2,1.3,5.4,5.4,0,0,1,1.2,3.8v9.2h-3.2Z"/><path class="cls-6" d="M189.7,209v-2.4h8.5v-2.4H201V209Z"/><path class="cls-6" d="M198.6,202.9v-4.1h2.9v4.1Z"/><path class="cls-6" d="M208.5,218.6a2.6,2.6,0,0,1,.9-1,3.2,3.2,0,0,1,1.7-.4h1.4v2.7h-1.5a2.9,2.9,0,0,0-1.7.4,2.3,2.3,0,0,0-.8,1.2v3.2h-3.2v-8.7a5.5,5.5,0,0,1,.4-2.2,5.1,5.1,0,0,1,1.2-1.8,6,6,0,0,1,2-1.2,8.4,8.4,0,0,1,5.3,0,6,6,0,0,1,2,1.2,5.1,5.1,0,0,1,1.2,1.8,5.5,5.5,0,0,1,.4,2.2v8.7h-3.2v-8.7a3.1,3.1,0,0,0-.8-2.2,3.5,3.5,0,0,0-4.6,0,3.1,3.1,0,0,0-.8,2.2Z"/><path class="cls-6" d="M207.1,209v-2.4h11.4V209Z"/><path class="cls-6" d="M231.9,224.8v-8.5a3.2,3.2,0,0,0-.9-2.3,3.2,3.2,0,0,0-2.4-.9,3.3,3.3,0,0,0-2.8,1.3,5.8,5.8,0,0,0-1,3.6,7.1,7.1,0,0,0,.3,2.1,4.1,4.1,0,0,0,.7,1.4,2.5,2.5,0,0,0,.9.7l1,.2h.9l.9-.3.6,2.3-1.2.5-1.6.2a5.9,5.9,0,0,1-2.2-.4,5.2,5.2,0,0,1-1.9-1.3,6.2,6.2,0,0,1-1.3-2.2,10,10,0,0,1,0-6.1,7.1,7.1,0,0,1,1.3-2.4,6.1,6.1,0,0,1,2.2-1.6,7.3,7.3,0,0,1,3-.6,8.2,8.2,0,0,1,2.8.4,5.8,5.8,0,0,1,2,1.2,5.2,5.2,0,0,1,1.2,1.9,6.2,6.2,0,0,1,.4,2.3v8.4Z"/><path class="cls-6" d="M238.6,221.3l1.9.8a6.3,6.3,0,0,0,2.1.4,3.3,3.3,0,0,0,2.7-1.2,5.6,5.6,0,0,0,.9-3.5,5.3,5.3,0,0,0-1-3.6,3.4,3.4,0,0,0-2.7-1.1,5.9,5.9,0,0,0-2,.3,8.1,8.1,0,0,0-1.9,1l-.7-2.4a9.3,9.3,0,0,1,2.3-1.1,8.7,8.7,0,0,1,2.6-.4,6.4,6.4,0,0,1,4.9,1.8,7.4,7.4,0,0,1,1.7,5.3q0,3.7-1.8,5.6a6.4,6.4,0,0,1-4.9,1.9,11.3,11.3,0,0,1-2.8-.3,6.3,6.3,0,0,1-2.2-.9Z"/><path class="cls-6" d="M246.2,209v-4.8h3V209Z"/><path class="cls-6" d="M258.8,224.8v-9q0-2.7-2.2-2.7a6.4,6.4,0,0,0-2.2.4l-1.9.9-.8-2.3a10.8,10.8,0,0,1,2.4-1.1,8.6,8.6,0,0,1,2.9-.5,5,5,0,0,1,3.9,1.4,5.6,5.6,0,0,1,1.3,3.9v8.9Z"/><path class="cls-6" d="M268.1,224.8l-1.2-4.9a.7.7,0,0,0-.7-.6h-.9v-2.6H267a3.2,3.2,0,0,1,1.6.4,2.2,2.2,0,0,1,.9,1.5l.9,3.7h.3l1.1-.4a3.3,3.3,0,0,0,.9-1,5.4,5.4,0,0,0,.6-1.5,7.3,7.3,0,0,0,.2-1.9,4.6,4.6,0,0,0-1-3.3,3.4,3.4,0,0,0-2.6-1,7.4,7.4,0,0,0-2.4.4,7.2,7.2,0,0,0-2.3,1.4l-1-2.3a8,8,0,0,1,2.6-1.5,9.5,9.5,0,0,1,3.4-.6,6.4,6.4,0,0,1,4.9,1.8,7.1,7.1,0,0,1,1.7,5.1,8.4,8.4,0,0,1-.5,2.9,7.9,7.9,0,0,1-1.3,2.3,6.2,6.2,0,0,1-1.9,1.6,5,5,0,0,1-2.3.6Z"/><path class="cls-6" d="M282.3,213.4a.5.5,0,0,0,.6.6h2.5v2.4h-3.3l-1.1-.2-.9-.5a2.4,2.4,0,0,1-.6-.9,3.5,3.5,0,0,1-.2-1.3v-1.1h3Zm0,6.7a.5.5,0,0,0,.6.6h2.5v2.4h-3.3L281,223l-.9-.5a2.4,2.4,0,0,1-.6-.9,3.5,3.5,0,0,1-.2-1.3v-1.1h3Z"/><path class="cls-6" d="M298.4,224.8l-2-6a3.2,3.2,0,0,0-.9-1.5,2.3,2.3,0,0,0-1.2-.5l-2.4,2.1v5.8h-3.2v-14h3.2v4.7l5.7-4.7h4.1l-5.1,4.2a3.8,3.8,0,0,1,1.9,1.1,6,6,0,0,1,1.1,1.9l2.2,6.8Z"/><path class="cls-6" d="M309.9,224.8v-9q0-2.7-2.2-2.7a6.4,6.4,0,0,0-2.2.4l-1.9.9-.8-2.3a10.8,10.8,0,0,1,2.4-1.1,8.6,8.6,0,0,1,2.9-.5,5,5,0,0,1,3.9,1.4,5.6,5.6,0,0,1,1.3,3.9v8.9Z"/><path class="cls-6" d="M317.9,224.8v-16a6.2,6.2,0,0,1,.6-2.8,3.7,3.7,0,0,1,1.7-1.7h-4.8v-2.6h8.2v2.3a3.5,3.5,0,0,0-1.8,1.7,6.3,6.3,0,0,0-.6,2.7v16.2Z"/><path class="cls-6" d="M334.6,224.8v-8.5a3.2,3.2,0,0,0-.9-2.3,3.2,3.2,0,0,0-2.4-.9,3.3,3.3,0,0,0-2.8,1.3,5.8,5.8,0,0,0-1,3.6,7.1,7.1,0,0,0,.3,2.1,4.1,4.1,0,0,0,.7,1.4,2.5,2.5,0,0,0,.9.7l1,.2h.9l.9-.3.6,2.3-1.2.5-1.6.2a5.9,5.9,0,0,1-2.2-.4,5.2,5.2,0,0,1-1.9-1.3,6.2,6.2,0,0,1-1.3-2.2,10,10,0,0,1,0-6.1,7.1,7.1,0,0,1,1.3-2.4,6.1,6.1,0,0,1,2.2-1.6,7.3,7.3,0,0,1,3-.6,8.2,8.2,0,0,1,2.8.4,5.8,5.8,0,0,1,2,1.2,5.2,5.2,0,0,1,1.2,1.9,6.2,6.2,0,0,1,.4,2.3v8.4Z"/><path class="cls-6" d="M335.6,206.2c0,.3.1.4.3.4h2.9V209h-4.4a1.3,1.3,0,0,1-.9-.3,1.1,1.1,0,0,1-.4-.9v-.6q0-.4-.3-.4h-1.5v-2.6H334a1.9,1.9,0,0,1,1.2.3,1.3,1.3,0,0,1,.4,1.1Z"/><circle class="cls-6" cx="74.3" cy="195.2" r="21.7"/><path class="cls-7" d="M69.6,188.1v14.2a1.5,1.5,0,0,0,2.4,1l11.2-8.1L72,187.2A1.5,1.5,0,0,0,69.6,188.1Z"/><circle class="cls-8" cx="121.7" cy="40" r="40"/><circle class="cls-9" cx="122.4" cy="29.8" r="14.3"/><path class="cls-9" d="M111.1,40S97.6,44.7,94.7,70.6"/><path class="cls-9" d="M132.1,39.3s13.5,4.7,16.4,30.6"/></g></g></svg>