<svg xmlns="http://www.w3.org/2000/svg" viewBox="0 0 370.5 78.6"><defs><style>.cls-1{fill:#d16659;}.cls-2{fill:none;stroke:#fbf8f3;stroke-miterlimit:10;stroke-width:3px;}.cls-3{fill:#fbf8f3;}</style></defs><title>i2</title><g id="Layer_2" data-name="Layer 2"><g id="Layer_1-2" data-name="Layer 1"><rect class="cls-1" width="370.5" height="78.61" rx="39.3" ry="39.3"/><rect class="cls-2" x="10.8" y="10.8" width="347.8" height="56.92" rx="28.5" ry="28.5"/><path class="cls-3" d="M157,30.5a4.5,4.5,0,0,1,1.7.3l-.5,5.1H158l-6.7-1.5V45.2a.7.7,0,0,0,.1.5l.6.2,1.1.2v.6H142.8v-.6l1.2-.3.6-.2a.7.7,0,0,0,.1-.5V32.8a.7.7,0,0,0-.1-.5l-.6-.2-1.2-.3v-.6l7.9-1h.6v3.2Q154.1,30.5,157,30.5Z"/><path class="cls-3" d="M169.3,43.9q1.1,1.9,4.3,1.9a7.6,7.6,0,0,0,2.7-.5,12.7,12.7,0,0,0,2.5-1.3l.4.6a12.4,12.4,0,0,1-8.1,2.5A10.8,10.8,0,0,1,164,45a7.9,7.9,0,0,1-2.6-6.4,7.3,7.3,0,0,1,2.7-6.1q2.7-2.1,7.5-2.1a11.1,11.1,0,0,1,4.6.9,6.2,6.2,0,0,1,2.8,2.3,5.8,5.8,0,0,1,.9,3.2,7.7,7.7,0,0,1-.2,1.6H168.1A11.2,11.2,0,0,0,169.3,43.9Zm-.5-11.2a13.2,13.2,0,0,0-.7,4.8h5.5V35.1a6.7,6.7,0,0,0-.5-2.9,1.9,1.9,0,0,0-1.9-.9A2.4,2.4,0,0,0,168.8,32.7Z"/><path class="cls-3" d="M193.8,46.4a1.7,1.7,0,0,1-.4-1.3V45a8.6,8.6,0,0,1-6.3,2.1,5.2,5.2,0,0,1-3.3-1,3.6,3.6,0,0,1-1.2-3,4.2,4.2,0,0,1,1.2-3.2,7.1,7.1,0,0,1,3.5-1.6,34.6,34.6,0,0,1,6.1-.6V35.3a3.9,3.9,0,0,0-.7-2.6,3.3,3.3,0,0,0-2.5-.8,9.3,9.3,0,0,0-2.8.4,12.2,12.2,0,0,0-2.6,1.2l-.4-.6a13.1,13.1,0,0,1,3.8-1.8,17.1,17.1,0,0,1,5-.7q3.7,0,5.3,1.5a5.5,5.5,0,0,1,1.6,4.2v9.1a.7.7,0,0,0,.1.5l.6.2,1.2.3v.6h-6.8A1.8,1.8,0,0,1,193.8,46.4Zm-.4-2.5V38.6a8.3,8.3,0,0,0-2.8.6,2.4,2.4,0,0,0-1.3,1.3,5.9,5.9,0,0,0-.3,2.2,2.9,2.9,0,0,0,.4,1.8,1.7,1.7,0,0,0,1.4.6A3.7,3.7,0,0,0,193.4,43.9Z"/><path class="cls-3" d="M221.5,31.7l-.4,4.3h-.6a8.4,8.4,0,0,0-1.8-3.6,4.4,4.4,0,0,0-3.3-1.2A3.6,3.6,0,0,0,212,33a9.8,9.8,0,0,0-1,5,18.4,18.4,0,0,0,.4,4.4,4.5,4.5,0,0,0,1.5,2.5,5,5,0,0,0,3.2.9,8.6,8.6,0,0,0,2.8-.4,10.7,10.7,0,0,0,2.5-1.3l.4.6a12.7,12.7,0,0,1-3.5,1.9,13.3,13.3,0,0,1-4.5.7q-4.6,0-7.2-2.1t-2.6-6.4a7.2,7.2,0,0,1,2.7-6.1q2.7-2.1,8-2.1A15.1,15.1,0,0,1,221.5,31.7Z"/><path class="cls-3" d="M224.1,31.7v-.9l1.5-.2,1-.6,5.8-5.3h.3v6H237v.9h-4.2v11a4.7,4.7,0,0,0,.4,2.2,1.4,1.4,0,0,0,1.3.6,2.7,2.7,0,0,0,1.3-.3,4.7,4.7,0,0,0,1.2-1l.5.6q-2.1,2.3-6.1,2.3a5.5,5.5,0,0,1-3.9-1.2,4.8,4.8,0,0,1-1.2-3.6V31.7Z"/></g></g></svg>