<svg xmlns="http://www.w3.org/2000/svg" viewBox="0 0 405.7 86.1"><defs><style>.cls-1{fill:#d16659;}.cls-2{fill:none;stroke:#fbf8f3;stroke-miterlimit:10;stroke-width:3px;}.cls-3{fill:#fbf8f3;}</style></defs><title>i31</title><g id="Layer_2" data-name="Layer 2"><g id="Layer_1-2" data-name="Layer 1"><rect class="cls-1" width="405.7" height="86.09" rx="43" ry="43"/><rect class="cls-2" x="11.8" y="11.9" width="380.9" height="62.34" rx="31.2" ry="31.2"/><path class="cls-3" d="M179.7,50.1l.7.3,1.3.3v.6h-7.5a1.8,1.8,0,0,1-1.4-.5,2.3,2.3,0,0,1-.4-1.5V38.3a3.9,3.9,0,0,0-.5-2.3,2.1,2.1,0,0,0-1.7-.7,7.2,7.2,0,0,0-4.4,1.8V49.5a.8.8,0,0,0,.2.6l.7.3,1.2.3v.6H156.4v-.6l1.3-.3.7-.3a.7.7,0,0,0,.2-.5V35.9a.7.7,0,0,0-.2-.5l-.7-.3-1.3-.3v-.6l8.6-1.1h.6V36a12.8,12.8,0,0,1,3.3-1.9,11.7,11.7,0,0,1,4.4-.8q3.3,0,4.8,1.4a5.6,5.6,0,0,1,1.4,4.2V49.5A.7.7,0,0,0,179.7,50.1Z"/><path class="cls-3" d="M193,48.1q1.2,2.1,4.7,2.1a8.3,8.3,0,0,0,3-.5,13.8,13.8,0,0,0,2.7-1.4l.5.7a13.5,13.5,0,0,1-8.9,2.7,11.8,11.8,0,0,1-7.8-2.4q-2.9-2.4-2.9-7a8,8,0,0,1,2.9-6.7q2.9-2.3,8.2-2.3a12.1,12.1,0,0,1,5,.9,6.8,6.8,0,0,1,3,2.5,6.4,6.4,0,0,1,1,3.5,8.5,8.5,0,0,1-.2,1.8H191.7A12.3,12.3,0,0,0,193,48.1Zm-.5-12.3a14.4,14.4,0,0,0-.8,5.3h6V38.4a7.3,7.3,0,0,0-.5-3.2,2.1,2.1,0,0,0-2.1-1A2.7,2.7,0,0,0,192.5,35.8Z"/><path class="cls-3" d="M223.7,35a.5.5,0,0,0,.2-.4c0-.1-.1-.2-.4-.3h-1v-.5h4.3v.5h-.9l-.7.2-.6.5-4.6,5.1,6.8,9.5.5.5.6.2,1.2.3v.5H217.4v-.5l1.2-.2c.4-.1.6-.2.6-.5a1.5,1.5,0,0,0-.3-.8l-3.4-4.7-5,5.4a.5.5,0,0,0-.2.4c0,.1.1.2.4.3h1v.5h-4.3v-.5h.9l.7-.2.6-.5,5.4-6-6.2-8.6-.5-.5-.6-.2-1.2-.3v-.5h11.7v.5l-1.2.2c-.4.1-.6.2-.6.5a1.6,1.6,0,0,0,.3.8l2.8,3.9Z"/><path class="cls-3" d="M230.2,34.7v-.9l1.7-.2,1.1-.6,6.4-5.8h.3v6.6h4.6v.9h-4.6V46.8a5.1,5.1,0,0,0,.4,2.4,1.5,1.5,0,0,0,1.4.7,3,3,0,0,0,1.4-.3,5.2,5.2,0,0,0,1.3-1.1l.6.7q-2.3,2.5-6.7,2.5t-4.3-1.3a5.2,5.2,0,0,1-1.3-3.9V34.7Z"/></g></g></svg>