<svg xmlns="http://www.w3.org/2000/svg" viewBox="0 0 427 90.6"><defs><style>.cls-1{fill:#5f7d8e;}.cls-2{fill:none;stroke:#fbf8f3;stroke-miterlimit:10;stroke-width:3px;}.cls-3{fill:#fbf8f3;}</style></defs><title>i32</title><g id="Layer_2" data-name="Layer 2"><g id="Layer_1-2" data-name="Layer 1"><rect class="cls-1" width="427" height="90.61" rx="45.3" ry="45.3"/><rect class="cls-2" x="12.5" y="12.5" width="400.9" height="65.61" rx="32.8" ry="32.8"/><path class="cls-3" d="M119.5,50.6q1.3,2.2,4.9,2.2a8.8,8.8,0,0,0,3.2-.5,14.7,14.7,0,0,0,2.9-1.5l.5.7q-3.5,2.9-9.3,2.9t-8.2-2.5q-3-2.5-3-7.4a8.4,8.4,0,0,1,3.1-7q3.1-2.4,8.6-2.4a12.7,12.7,0,0,1,5.3,1,7.1,7.1,0,0,1,3.2,2.6,6.7,6.7,0,0,1,1,3.7,9,9,0,0,1-.2,1.9H118.2A12.9,12.9,0,0,0,119.5,50.6ZM119,37.7a15.2,15.2,0,0,0-.8,5.5h6.4V40.4A7.7,7.7,0,0,0,124,37a2.2,2.2,0,0,0-2.2-1.1A2.8,2.8,0,0,0,119,37.7Z"/><path class="cls-3" d="M158.9,52.7l.7.3,1.3.3v.7h-7.9a1.8,1.8,0,0,1-1.5-.5,2.4,2.4,0,0,1-.5-1.6V40.3a4.1,4.1,0,0,0-.5-2.4,2.2,2.2,0,0,0-1.8-.7,7.6,7.6,0,0,0-4.7,1.9V52.1a.8.8,0,0,0,.2.6l.7.3,1.3.3v.7h-12v-.7l1.3-.3.7-.3a.7.7,0,0,0,.2-.6V37.8a.7.7,0,0,0-.2-.6l-.7-.3-1.3-.3V36l9.1-1.1h.6v3.1a13.4,13.4,0,0,1,3.5-2,12.4,12.4,0,0,1,4.6-.8q3.5,0,5,1.5a5.9,5.9,0,0,1,1.5,4.4V52.1A.7.7,0,0,0,158.9,52.7Z"/><path class="cls-3" d="M179.9,53.4a2.4,2.4,0,0,1-.5-1.6,8.6,8.6,0,0,1-6.6,2.6,9.2,9.2,0,0,1-6.6-2.4q-2.5-2.4-2.5-7.5t2.5-7.2a9.4,9.4,0,0,1,6.7-2.3,11.8,11.8,0,0,1,3.8.5,10.7,10.7,0,0,1,2.7,1.4V29.2a.7.7,0,0,0-.2-.6l-.7-.3-1.3-.3v-.7l9.1-1.1h.7V52.1a.7.7,0,0,0,.2.6l.7.3,1.3.3v.7h-7.8A1.8,1.8,0,0,1,179.9,53.4Zm-.5-2.8V38.1a6.4,6.4,0,0,0-4.1-1.4,3,3,0,0,0-2.9,1.8,15.8,15.8,0,0,0-.8,6,27.6,27.6,0,0,0,.3,4.8,5.2,5.2,0,0,0,1.1,2.6,2.8,2.8,0,0,0,2.1.9A6,6,0,0,0,179.3,50.6Z"/><path class="cls-3" d="M220.8,35.4a3.1,3.1,0,0,0-1.7.4q4.8,1.4,4.8,5.5a5,5,0,0,1-2.6,4.8,15.3,15.3,0,0,1-7.4,1.5,19.3,19.3,0,0,1-4.7-.5,7.5,7.5,0,0,0-2.1.4q-.9.3-.9.9a.9.9,0,0,0,.5.9l1.6.5,3.5.4,6.4.6a18.2,18.2,0,0,1,4.3.9,4.6,4.6,0,0,1,2.3,1.7,5.2,5.2,0,0,1,.7,2.9,5.1,5.1,0,0,1-1.8,4,10.7,10.7,0,0,1-4.5,2.3,23.4,23.4,0,0,1-5.9.7,19.1,19.1,0,0,1-7.4-1.2q-2.9-1.2-2.9-3.7a2.8,2.8,0,0,1,1.3-2.5,7.3,7.3,0,0,1,3.3-1.1q-4.3-1-4.3-4.1t4-4a5.3,5.3,0,0,1-3.6-5.2,4.9,4.9,0,0,1,2.6-4.7,15.8,15.8,0,0,1,7.4-1.4l4,.4a8.4,8.4,0,0,1,3.1-2.7,9.7,9.7,0,0,1,4.7-1.1l-.9,4.4h-.4l-.9-.3A10.2,10.2,0,0,0,220.8,35.4ZM208.9,54.7a6.4,6.4,0,0,0-.5,2.7,4.7,4.7,0,0,0,1.1,3.5q1.1,1.1,4.2,1.1a14.3,14.3,0,0,0,5.6-.9,2.8,2.8,0,0,0,2-2.6,2.4,2.4,0,0,0-.4-1.5,2.6,2.6,0,0,0-1.3-.8l-2.7-.5-5.3-.6Zm7.4-9.5a9.6,9.6,0,0,0,.6-4,9.2,9.2,0,0,0-.6-3.9,2.9,2.9,0,0,0-4.8,0,9.2,9.2,0,0,0-.6,3.9,9.6,9.6,0,0,0,.6,4,2.9,2.9,0,0,0,4.8,0Z"/><path class="cls-3" d="M241.6,53.5a2,2,0,0,1-.4-1.5v-.2q-2.5,2.5-7.2,2.5a6,6,0,0,1-3.8-1.1,4.2,4.2,0,0,1-1.4-3.5,4.8,4.8,0,0,1,1.4-3.7,8.2,8.2,0,0,1,4-1.9,39.8,39.8,0,0,1,7-.7V40.7a4.5,4.5,0,0,0-.8-3,3.8,3.8,0,0,0-2.9-.9,10.7,10.7,0,0,0-3.2.5,14,14,0,0,0-3,1.4l-.5-.7a15.1,15.1,0,0,1,4.4-2.1,19.7,19.7,0,0,1,5.7-.8q4.3,0,6.1,1.7a6.3,6.3,0,0,1,1.8,4.9V52.1a.7.7,0,0,0,.2.6l.7.3,1.3.3v.7h-7.8A2.1,2.1,0,0,1,241.6,53.5Zm-.4-2.9V44.5a9.6,9.6,0,0,0-3.2.7,2.8,2.8,0,0,0-1.5,1.5,6.8,6.8,0,0,0-.4,2.6,3.4,3.4,0,0,0,.5,2.1,1.9,1.9,0,0,0,1.6.6A4.3,4.3,0,0,0,241.2,50.6Z"/><path class="cls-3" d="M265.7,35.8a12.3,12.3,0,0,1,4.2-.7q4.7,0,6,2.8a13.1,13.1,0,0,1,3.5-2,12.4,12.4,0,0,1,4.6-.8q3.5,0,5,1.5a5.9,5.9,0,0,1,1.5,4.4V52.1a.7.7,0,0,0,.2.6l.7.3,1.3.3v.7h-7.9a1.9,1.9,0,0,1-1.5-.5,2.4,2.4,0,0,1-.5-1.6V40.3a4.1,4.1,0,0,0-.6-2.4,2.2,2.2,0,0,0-1.8-.7,7.6,7.6,0,0,0-4.4,1.7,9.4,9.4,0,0,1,.2,2.2V52.1a.7.7,0,0,0,.2.6l.7.3,1.3.3v.7h-7.9a1.8,1.8,0,0,1-1.5-.5,2.4,2.4,0,0,1-.5-1.6V40.3a4.1,4.1,0,0,0-.5-2.4,2.2,2.2,0,0,0-1.8-.7,7.1,7.1,0,0,0-4.1,1.5V52.1a.8.8,0,0,0,.2.6l.7.3,1.3.3v.7h-12v-.7l1.3-.3.7-.3a.7.7,0,0,0,.2-.6V37.8a.7.7,0,0,0-.2-.6l-.7-.3-1.3-.3V36l9.1-1.1h.6v2.7A14,14,0,0,1,265.7,35.8Z"/><path class="cls-3" d="M304.7,50.6q1.3,2.2,4.9,2.2a8.8,8.8,0,0,0,3.2-.5,14.7,14.7,0,0,0,2.9-1.5l.5.7q-3.5,2.9-9.3,2.9t-8.2-2.5q-3-2.5-3-7.4a8.4,8.4,0,0,1,3.1-7q3.1-2.4,8.6-2.4a12.7,12.7,0,0,1,5.3,1,7.1,7.1,0,0,1,3.2,2.6,6.7,6.7,0,0,1,1,3.7,9,9,0,0,1-.2,1.9H303.3A12.9,12.9,0,0,0,304.7,50.6Zm-.5-12.9a15.2,15.2,0,0,0-.8,5.5h6.4V40.4a7.7,7.7,0,0,0-.6-3.4,2.2,2.2,0,0,0-2.2-1.1A2.8,2.8,0,0,0,304.1,37.7Z"/></g></g></svg>