<svg xmlns="http://www.w3.org/2000/svg" viewBox="0 0 1018 183.1"><defs><style>.cls-1,.cls-4{fill:none;stroke-miterlimit:10;}.cls-1{stroke:#7f98a5;stroke-width:9px;}.cls-2{fill:#1c2531;}.cls-3{fill:#5f7e8f;}.cls-4{stroke:#fcf8f4;}</style></defs><title>amp-from-right-mobile_1</title><g id="Layer_2" data-name="Layer 2"><g id="Layer_1-2" data-name="Layer 1"><path class="cls-1" d="M1018,4.5H147.1a15.6,15.6,0,0,0-15.6,15.6h0a15.6,15.6,0,0,0,15.6,15.6H318a15.5,15.5,0,0,1,15.5,15.5h0A15.5,15.5,0,0,1,318,66.6H36.3A26.8,26.8,0,0,0,9.5,93.5v17.2"/><path class="cls-2" d="M3.8,106.1H16.2a3.8,3.8,0,0,1,3.8,3.8v40.2a10,10,0,0,1-10,10h0a10,10,0,0,1-10-10V109.9a3.8,3.8,0,0,1,3.8-3.8Z" transform="translate(20 266.3) rotate(-180)"/><path class="cls-3" d="M10,160.1h0a3,3,0,0,1,3,3v20a0,0,0,0,1,0,0H7a0,0,0,0,1,0,0v-20a3,3,0,0,1,3-3Z" transform="translate(20 343.3) rotate(180)"/><line class="cls-4" x1="13" y1="161.4" x2="7" y2="161.4"/><line class="cls-4" x1="13" y1="168.6" x2="7" y2="168.6"/></g></g></svg>