<svg xmlns="http://www.w3.org/2000/svg" viewBox="0 0 541.2 58.6"><defs><style>.cls-1{fill:#fbf8f3;}.cls-2{fill:#5f7e8f;}</style></defs><title>music_tab</title><g id="Layer_2" data-name="Layer 2"><g id="Layer_1-2" data-name="Layer 1"><path class="cls-1" d="M471.5,44.1h50.9c10.4,0,18.9-9.9,18.9-22.1h0C541.2,9.9,532.7,0,522.3,0H18.9C8.5,0,0,9.9,0,22.1H0C0,34.2,8.5,44.1,18.9,44.1H455.1l-2.8,11.4c-.6,2.3,1.7,4,3.3,2.6Z"/><path class="cls-2" d="M405.2,13.3V29.7a1.4,1.4,0,0,0,2.4,1.1l9.7-8.2a1.4,1.4,0,0,0,0-2.2l-9.7-8.2A1.4,1.4,0,0,0,405.2,13.3Z"/><path class="cls-2" d="M422.7,13.3V29.7a1.4,1.4,0,0,0,2.4,1.1l9.7-8.2a1.4,1.4,0,0,0,0-2.2l-9.7-8.2A1.4,1.4,0,0,0,422.7,13.3Z"/><path class="cls-2" d="M255.9,13.3V29.7a1.4,1.4,0,0,0,2.4,1.1l9.7-8.2a1.4,1.4,0,0,0,0-2.2l-9.7-8.2A1.4,1.4,0,0,0,255.9,13.3Z"/><rect class="cls-2" x="274.1" y="11.9" width="3.7" height="19.3" rx="1.6" ry="1.6"/><rect class="cls-2" x="281.6" y="11.9" width="3.7" height="19.3" rx="1.6" ry="1.6"/><path class="cls-2" d="M136,29.7V13.3a1.4,1.4,0,0,0-2.4-1.1l-9.7,8.2a1.4,1.4,0,0,0,0,2.2l9.7,8.2A1.4,1.4,0,0,0,136,29.7Z"/><path class="cls-2" d="M118.5,29.7V13.3a1.4,1.4,0,0,0-2.4-1.1l-9.7,8.2a1.4,1.4,0,0,0,0,2.2l9.7,8.2A1.4,1.4,0,0,0,118.5,29.7Z"/></g></g></svg>