<svg xmlns="http://www.w3.org/2000/svg" viewBox="0 0 1123 102"><defs><style>.cls-1,.cls-4{fill:none;stroke-miterlimit:10;}.cls-1{stroke:#f4ecea;stroke-width:6.69px;}.cls-2{fill:#1c2531;}.cls-3{fill:#5f7e8f;}.cls-4{stroke:#fcf8f4;stroke-width:0.74px;}</style></defs><title>white-amp-from-left-desktop</title><g id="Layer_2" data-name="Layer 2"><g id="Layer_1-2" data-name="Layer 1"><path class="cls-1" d="M0,3.3H1041.8a8.6,8.6,0,0,1,8.6,8.6h0a8.6,8.6,0,0,1-8.6,8.6H947.3a8.6,8.6,0,0,0-8.6,8.6h0a8.6,8.6,0,0,0,8.6,8.6h155.6a14.8,14.8,0,0,1,14.8,14.8V62"/><path class="cls-2" d="M1117.5,59.5h0A5.5,5.5,0,0,1,1123,65V87.2a2.1,2.1,0,0,1-2.1,2.1H1114a2.1,2.1,0,0,1-2.1-2.1V65A5.5,5.5,0,0,1,1117.5,59.5Z"/><path class="cls-3" d="M1115.8,89.3h3.3a0,0,0,0,1,0,0v11a1.7,1.7,0,0,1-1.7,1.7h0a1.7,1.7,0,0,1-1.7-1.7v-11A0,0,0,0,1,1115.8,89.3Z"/><line class="cls-4" x1="1115.8" y1="90" x2="1119.1" y2="90"/><line class="cls-4" x1="1115.8" y1="94" x2="1119.1" y2="94"/></g></g></svg>