<svg xmlns="http://www.w3.org/2000/svg" viewBox="0 0 1123 102"><defs><style>.cls-1,.cls-4{fill:none;stroke-miterlimit:10;}.cls-1{stroke:#f4ecea;stroke-width:6.69px;}.cls-2{fill:#1c2531;}.cls-3{fill:#5f7e8f;}.cls-4{stroke:#fcf8f4;stroke-width:0.74px;}</style></defs><title>white-amp-from-right-desktop</title><g id="Layer_2" data-name="Layer 2"><g id="Layer_1-2" data-name="Layer 1"><path class="cls-1" d="M1123,3.3H81.2a8.6,8.6,0,0,0-8.6,8.6h0a8.6,8.6,0,0,0,8.6,8.6h94.4a8.6,8.6,0,0,1,8.6,8.6h0a8.6,8.6,0,0,1-8.6,8.6H20.1A14.8,14.8,0,0,0,5.2,52.5V62"/><path class="cls-2" d="M2.1,59.5H9A2.1,2.1,0,0,1,11,61.6V83.8a5.5,5.5,0,0,1-5.5,5.5h0A5.5,5.5,0,0,1,0,83.8V61.6A2.1,2.1,0,0,1,2.1,59.5Z" transform="translate(11 148.8) rotate(-180)"/><path class="cls-3" d="M5.5,89.3h0A1.7,1.7,0,0,1,7.2,91v11a0,0,0,0,1,0,0H3.9a0,0,0,0,1,0,0V91A1.7,1.7,0,0,1,5.5,89.3Z" transform="translate(11 191.3) rotate(180)"/><line class="cls-4" x1="7.2" y1="90" x2="3.9" y2="90"/><line class="cls-4" x1="7.2" y1="94" x2="3.9" y2="94"/></g></g></svg>