<svg xmlns="http://www.w3.org/2000/svg" viewBox="0 0 1018 183.1"><defs><style>.cls-1,.cls-4{fill:none;stroke-miterlimit:10;}.cls-1{stroke:#f4ecea;stroke-width:9px;}.cls-2{fill:#1c2531;}.cls-3{fill:#5f7e8f;}.cls-4{stroke:#fcf8f4;}</style></defs><title>white-amp-from-left-mobile</title><g id="Layer_2" data-name="Layer 2"><g id="Layer_1-2" data-name="Layer 1"><path class="cls-1" d="M0,4.5H870.9a15.6,15.6,0,0,1,15.6,15.6h0a15.6,15.6,0,0,1-15.6,15.6H700a15.5,15.5,0,0,0-15.5,15.5h0A15.5,15.5,0,0,0,700,66.6H981.7a26.8,26.8,0,0,1,26.8,26.8v17.2"/><path class="cls-2" d="M1008,106.1h0a10,10,0,0,1,10,10v40.2a3.8,3.8,0,0,1-3.8,3.8h-12.4a3.8,3.8,0,0,1-3.8-3.8V116.1a10,10,0,0,1,10-10Z"/><path class="cls-3" d="M1005,160.1h6a0,0,0,0,1,0,0v20a3,3,0,0,1-3,3h0a3,3,0,0,1-3-3v-20a0,0,0,0,1,0,0Z"/><line class="cls-4" x1="1005" y1="161.4" x2="1011" y2="161.4"/><line class="cls-4" x1="1005" y1="168.6" x2="1011" y2="168.6"/></g></g></svg>