<svg xmlns="http://www.w3.org/2000/svg" viewBox="0 0 194 147.7"><defs><style>.cls-1{fill:#d8a9a0;}.cls-2{fill:#d16659;}.cls-3{fill:#7498a3;}</style></defs><title>ins-1</title><g id="Layer_2" data-name="Layer 2"><g id="Layer_1-2" data-name="Layer 1"><path class="cls-1" d="M.6,38.1l1.9-.4,1-.4a1.1,1.1,0,0,0,.2-.8V4.2a1.1,1.1,0,0,0-.2-.8L2.5,3,.6,2.6v-1L13.5,0h1V36.5a1,1,0,0,0,.2.8l1,.4,1.9.4v1H.6Z"/><path class="cls-1" d="M50.7,36.3q-4.3,3.4-12.4,3.4T25.9,36.3Q21.6,33,21.6,26.1t4.3-10.3q4.3-3.4,12.4-3.4t12.4,3.4Q55,19.2,55,26.1T50.7,36.3ZM33.2,33.4a6.9,6.9,0,0,0,1.6,3.7,4.7,4.7,0,0,0,3.5,1.2,4.7,4.7,0,0,0,3.5-1.2,6.9,6.9,0,0,0,1.6-3.7,44.9,44.9,0,0,0,.5-7.3,44.9,44.9,0,0,0-.5-7.3A6.9,6.9,0,0,0,41.8,15a4.7,4.7,0,0,0-3.5-1.2A4.7,4.7,0,0,0,34.8,15a6.9,6.9,0,0,0-1.6,3.7,44.8,44.8,0,0,0-.5,7.3A44.8,44.8,0,0,0,33.2,33.4Z"/><path class="cls-1" d="M73.3,14.2q-1.2.3-1.2,1a2.1,2.1,0,0,0,.3.9l6.2,12.5,5.8-13.6a1.3,1.3,0,0,0,.2-.5q0-.3-.7-.4l-1.4-.2v-.8h6.2v.8l-1.4.2-.9.3a1.7,1.7,0,0,0-.5.8L74.9,40h-1L61,15.3a1.8,1.8,0,0,0-.6-.7l-.9-.3-1.6-.4v-.8H74.7v.8Z"/><path class="cls-1" d="M104.4,34.4q1.8,3.1,6.9,3.1a12.4,12.4,0,0,0,4.5-.7,20.7,20.7,0,0,0,4-2.1l.7,1q-5,4.1-13.2,4.1T95.7,36.2q-4.3-3.6-4.3-10.4t4.3-9.9q4.3-3.4,12.1-3.4a18,18,0,0,1,7.5,1.4,10.1,10.1,0,0,1,4.5,3.7,9.5,9.5,0,0,1,1.5,5.2,12.6,12.6,0,0,1-.3,2.7H102.5Q102.6,31.3,104.4,34.4Zm-.8-18.3q-1.1,2.5-1.1,7.8h9V20a10.9,10.9,0,0,0-.8-4.8,3.1,3.1,0,0,0-3.1-1.5A4,4,0,0,0,103.6,16.2Z"/><path class="cls-2" d="M2.6,93.1l1.9-.4,1-.4a1.1,1.1,0,0,0,.2-.8V59.2a1.1,1.1,0,0,0-.2-.8l-1-.4-1.9-.4v-1L15.5,55h1V91.5a1,1,0,0,0,.2.8l1,.4,1.9.4v1H2.6Z"/><path class="cls-2" d="M22.3,93.1l1.9-.4,1-.4a1,1,0,0,0,.2-.8V71.3a1.1,1.1,0,0,0-.2-.8l-1-.4-1.9-.4v-1l12.8-1.6h1V91.5a1,1,0,0,0,.2.8l1,.4,1.9.4v1h-17Zm4.5-30.3a4.5,4.5,0,0,1,0-6.7,6.4,6.4,0,0,1,4-1.2,6.4,6.4,0,0,1,4,1.2,4.5,4.5,0,0,1,0,6.7,6.4,6.4,0,0,1-4,1.2A6.4,6.4,0,0,1,26.8,62.8Z"/><path class="cls-2" d="M45.3,68.1V63.8q0-4.4,2.7-6.6T57,55a19.6,19.6,0,0,1,8.5,1.6l-.6,7H63.8q-1.1-3.1-1.7-4.4a5.5,5.5,0,0,0-1.7-2.1,4.7,4.7,0,0,0-2.9-.8,3.6,3.6,0,0,0-2.4.6,2.5,2.5,0,0,0-.7,2,9.5,9.5,0,0,0,.2,2.1q.2.9.6,2.2t.5,1.6a7.7,7.7,0,0,1,.2,1.7v1.6h6.5v1.4H55.9v22a1.1,1.1,0,0,0,.2.8l1,.4,2,.5v1h-17v-1l1.9-.4,1-.4a1,1,0,0,0,.2-.8V69.5H41.8V68.1Z"/><path class="cls-2" d="M80.4,89.4q1.8,3.1,6.9,3.1a12.4,12.4,0,0,0,4.5-.7,20.7,20.7,0,0,0,4-2.1l.7,1q-5,4.1-13.2,4.1T71.7,91.2q-4.3-3.6-4.3-10.4t4.3-9.9q4.3-3.4,12.1-3.4a18,18,0,0,1,7.5,1.4A10.1,10.1,0,0,1,96,72.5a9.5,9.5,0,0,1,1.5,5.2,12.6,12.6,0,0,1-.3,2.7H78.5Q78.6,86.3,80.4,89.4Zm-.8-18.3q-1.1,2.5-1.1,7.8h9V75a10.9,10.9,0,0,0-.8-4.8,3.1,3.1,0,0,0-3.1-1.5A4,4,0,0,0,79.6,71.2Z"/><path class="cls-3" d="M22.9,146.3a3.4,3.4,0,0,1-.6-2.2,12.2,12.2,0,0,1-9.3,3.6q-5.9,0-9.4-3.4T0,133.8q0-6.9,3.5-10.1t9.4-3.2a16.6,16.6,0,0,1,5.4.8,15.1,15.1,0,0,1,3.8,1.9V112.2a1.1,1.1,0,0,0-.2-.8l-1-.4-1.9-.4v-1L31.8,108h1v36.5a1,1,0,0,0,.2.8l1,.4,1.9.4v1h-11A2.6,2.6,0,0,1,22.9,146.3Zm-.7-3.9V124.7a9.1,9.1,0,0,0-5.8-2,4.2,4.2,0,0,0-4.1,2.6q-1.2,2.6-1.2,8.5a39,39,0,0,0,.5,6.7,7.4,7.4,0,0,0,1.6,3.7,3.9,3.9,0,0,0,3,1.2A8.4,8.4,0,0,0,22.1,142.4Z"/><path class="cls-3" d="M61.8,120.6a7.4,7.4,0,0,1,2.8.4l-.8,8.3h-.4l-11-2.4v17.6a1.2,1.2,0,0,0,.2.8l1,.4,1.8.4v1H38.5v-1l1.9-.4,1-.4a1.1,1.1,0,0,0,.2-.8V124.3a1.1,1.1,0,0,0-.2-.8l-1-.4-1.9-.4v-1l12.8-1.6h.9v5.2Q56.9,120.6,61.8,120.6Z"/><path class="cls-3" d="M81.8,142.4q1.8,3.1,6.9,3.1a12.4,12.4,0,0,0,4.5-.7,20.7,20.7,0,0,0,4-2.1l.7,1q-5,4.1-13.2,4.1t-11.6-3.6q-4.3-3.6-4.3-10.4t4.3-9.9q4.3-3.4,12.1-3.4a18,18,0,0,1,7.5,1.4,10.1,10.1,0,0,1,4.5,3.7,9.5,9.5,0,0,1,1.5,5.2,12.6,12.6,0,0,1-.3,2.7H79.9Q79.9,139.3,81.8,142.4ZM81,124.2q-1.1,2.5-1.1,7.8h9v-4a10.9,10.9,0,0,0-.8-4.8,3.1,3.1,0,0,0-3.1-1.5A4,4,0,0,0,81,124.2Z"/><path class="cls-3" d="M121.6,146.5a2.8,2.8,0,0,1-.6-2.1v-.3q-3.6,3.5-10.2,3.5a8.4,8.4,0,0,1-5.4-1.6,5.9,5.9,0,0,1-2-4.9,6.9,6.9,0,0,1,2-5.2,11.6,11.6,0,0,1,5.7-2.7,56.4,56.4,0,0,1,10-1v-3.9a6.4,6.4,0,0,0-1.2-4.3q-1.2-1.3-4.1-1.3a15.1,15.1,0,0,0-4.6.7,19.8,19.8,0,0,0-4.3,2l-.7-1a21.4,21.4,0,0,1,6.2-2.9,27.9,27.9,0,0,1,8.1-1.1q6,0,8.6,2.4t2.6,6.9v14.8a1,1,0,0,0,.2.8l1,.4,1.9.4v1h-11A2.9,2.9,0,0,1,121.6,146.5Zm-.6-4v-8.7a13.5,13.5,0,0,0-4.5.9,4,4,0,0,0-2.1,2.1,9.6,9.6,0,0,0-.6,3.6,4.8,4.8,0,0,0,.7,2.9,2.7,2.7,0,0,0,2.3.9A6,6,0,0,0,121,142.4Z"/><path class="cls-3" d="M155.6,121.4a17.5,17.5,0,0,1,6-1q6.6,0,8.5,4a18.5,18.5,0,0,1,5-2.8,17.6,17.6,0,0,1,6.5-1.2q5,0,7.1,2.1t2.1,6.3v15.7a1,1,0,0,0,.2.8l1,.4,1.9.4v1H182.8a2.6,2.6,0,0,1-2.1-.7,3.4,3.4,0,0,1-.6-2.2V127.8a5.8,5.8,0,0,0-.8-3.4,3.1,3.1,0,0,0-2.6-1,10.7,10.7,0,0,0-6.2,2.4,13.1,13.1,0,0,1,.3,3.1v15.7a1,1,0,0,0,.2.8l1,.4,1.9.4v1H162.9a2.6,2.6,0,0,1-2.1-.7,3.4,3.4,0,0,1-.6-2.2V127.8a5.8,5.8,0,0,0-.8-3.4,3.1,3.1,0,0,0-2.6-1,10.1,10.1,0,0,0-5.8,2.1v19a1.2,1.2,0,0,0,.2.8l1,.4,1.8.4v1H137.1v-1l1.9-.4,1-.4a1.1,1.1,0,0,0,.2-.8V124.3a1.1,1.1,0,0,0-.2-.8l-1-.4-1.9-.4v-1l12.8-1.6h.9v3.7A19.9,19.9,0,0,1,155.6,121.4Z"/></g></g></svg>