<svg xmlns="http://www.w3.org/2000/svg" viewBox="0 0 250.4 166.7"><defs><style>.cls-1{fill:#1c2531;}.cls-2{fill:none;stroke:#99a2aa;stroke-miterlimit:10;stroke-width:1.06px;}.cls-3{fill:#9bb6ba;}.cls-4{fill:#fff;}</style></defs><title>topic-dream</title><g id="Layer_2" data-name="Layer 2"><g id="Layer_1-2" data-name="Layer 1"><path class="cls-1" d="M79.8,3.9a79.8,79.8,0,1,0,79.8,79.8A79.8,79.8,0,0,0,79.8,3.9Zm0,94.6A14.8,14.8,0,1,1,94.6,83.7,14.8,14.8,0,0,1,79.8,98.5Z"/><circle class="cls-2" cx="79.8" cy="83.7" r="72.1"/><circle class="cls-2" cx="79.8" cy="83.7" r="67.9"/><circle class="cls-2" cx="79.8" cy="83.7" r="31.2"/><rect class="cls-3" x="83.7" width="166.7" height="166.74" rx="6.2" ry="6.2"/><path class="cls-4" d="M129.6,89.6a2.1,2.1,0,0,1-.4-1.4,7.7,7.7,0,0,1-5.9,2.3,8.2,8.2,0,0,1-6-2.1q-2.2-2.1-2.2-6.7t2.2-6.4a8.4,8.4,0,0,1,6-2.1,10.5,10.5,0,0,1,3.4.5,9.6,9.6,0,0,1,2.4,1.2V67.9a.7.7,0,0,0-.2-.5l-.7-.2-1.2-.3v-.6l8.1-1h.6V88.4a.7.7,0,0,0,.2.5l.7.2,1.2.3V90h-7A1.7,1.7,0,0,1,129.6,89.6Zm-.5-2.5V75.9a5.8,5.8,0,0,0-3.7-1.3,2.6,2.6,0,0,0-2.6,1.6,14.1,14.1,0,0,0-.7,5.4,24.8,24.8,0,0,0,.3,4.3,4.7,4.7,0,0,0,1,2.3,2.5,2.5,0,0,0,1.9.8A5.3,5.3,0,0,0,129.2,87.1Z"/><path class="cls-4" d="M154.3,73.2a4.7,4.7,0,0,1,1.8.3l-.5,5.3h-.2l-7-1.5V88.4a.7.7,0,0,0,.2.5l.6.3,1.2.2V90H139.6v-.6l1.2-.3.7-.2a.7.7,0,0,0,.2-.5V75.6a.7.7,0,0,0-.2-.5l-.7-.2-1.2-.3V74l8.1-1h.6v3.3Q151.2,73.2,154.3,73.2Z"/><path class="cls-4" d="M167,87.1q1.2,2,4.4,2a7.9,7.9,0,0,0,2.8-.5,13.1,13.1,0,0,0,2.6-1.4l.4.6a12.8,12.8,0,0,1-8.3,2.6,11.1,11.1,0,0,1-7.4-2.3,8.1,8.1,0,0,1-2.7-6.6,7.5,7.5,0,0,1,2.7-6.3q2.7-2.2,7.7-2.2a11.4,11.4,0,0,1,4.7.9,6.4,6.4,0,0,1,2.9,2.4,6,6,0,0,1,.9,3.3,8,8,0,0,1-.2,1.7H165.8A11.6,11.6,0,0,0,167,87.1Zm-.5-11.6a13.6,13.6,0,0,0-.7,5h5.7V77.9a6.9,6.9,0,0,0-.5-3,2,2,0,0,0-2-.9A2.5,2.5,0,0,0,166.5,75.5Z"/><path class="cls-4" d="M192.2,89.6a1.8,1.8,0,0,1-.4-1.3v-.2a8.9,8.9,0,0,1-6.5,2.2,5.3,5.3,0,0,1-3.4-1,3.8,3.8,0,0,1-1.2-3.1,4.3,4.3,0,0,1,1.2-3.3,7.3,7.3,0,0,1,3.6-1.7,35.7,35.7,0,0,1,6.3-.6V78.2a4,4,0,0,0-.7-2.7,3.4,3.4,0,0,0-2.6-.8,9.6,9.6,0,0,0-2.9.4,12.6,12.6,0,0,0-2.7,1.3l-.4-.6a13.5,13.5,0,0,1,3.9-1.8,17.7,17.7,0,0,1,5.1-.7q3.8,0,5.5,1.5a5.7,5.7,0,0,1,1.6,4.4v9.4a.7.7,0,0,0,.2.5l.7.2,1.2.3V90h-7A1.9,1.9,0,0,1,192.2,89.6Zm-.4-2.6V81.6a8.6,8.6,0,0,0-2.9.6,2.5,2.5,0,0,0-1.3,1.3,6.1,6.1,0,0,0-.4,2.3,3,3,0,0,0,.5,1.9,1.7,1.7,0,0,0,1.4.6A3.8,3.8,0,0,0,191.8,87.1Z"/><path class="cls-4" d="M213.8,73.8a11.1,11.1,0,0,1,3.8-.6q4.2,0,5.4,2.5a11.7,11.7,0,0,1,3.1-1.8,11.1,11.1,0,0,1,4.1-.7q3.2,0,4.5,1.3a5.3,5.3,0,0,1,1.4,4v10a.7.7,0,0,0,.2.5l.7.2,1.2.3V90H231a1.7,1.7,0,0,1-1.3-.5,2.1,2.1,0,0,1-.4-1.4V77.8a3.7,3.7,0,0,0-.5-2.2,1.9,1.9,0,0,0-1.6-.6,6.8,6.8,0,0,0-3.9,1.5,8.3,8.3,0,0,1,.2,1.9v10a.7.7,0,0,0,.2.5l.7.2,1.2.3V90h-7.1a1.7,1.7,0,0,1-1.3-.5,2.1,2.1,0,0,1-.4-1.4V77.8a3.7,3.7,0,0,0-.5-2.2,1.9,1.9,0,0,0-1.6-.6,6.4,6.4,0,0,0-3.7,1.4v12a.7.7,0,0,0,.2.5l.6.3,1.2.2V90H202v-.6l1.2-.3.7-.2a.7.7,0,0,0,.2-.5V75.6a.7.7,0,0,0-.2-.5l-.7-.2-1.2-.3V74l8.1-1h.6v2.4A12.6,12.6,0,0,1,213.8,73.8Z"/></g></g></svg>