<svg xmlns="http://www.w3.org/2000/svg" viewBox="0 0 250.4 166.7"><defs><style>.cls-1{fill:#1c2531;}.cls-2{fill:none;stroke:#99a2aa;stroke-miterlimit:10;stroke-width:1.06px;}.cls-3{fill:#d8a9a0;}.cls-4{fill:#fff;}</style></defs><title>topic-love</title><g id="Layer_2" data-name="Layer 2"><g id="Layer_1-2" data-name="Layer 1"><path class="cls-1" d="M79.8,3.9a79.8,79.8,0,1,0,79.8,79.8A79.8,79.8,0,0,0,79.8,3.9Zm0,94.6A14.8,14.8,0,1,1,94.6,83.7,14.8,14.8,0,0,1,79.8,98.5Z"/><circle class="cls-2" cx="79.8" cy="83.7" r="72.1"/><circle class="cls-2" cx="79.8" cy="83.7" r="67.9"/><circle class="cls-2" cx="79.8" cy="83.7" r="31.2"/><rect class="cls-3" x="83.7" width="166.7" height="166.74" rx="6.2" ry="6.2"/><path class="cls-4" d="M117.8,94.2l1.6-.4.9-.3a.9.9,0,0,0,.2-.7V65.5a.9.9,0,0,0-.2-.7l-.9-.3-1.6-.4v-.8l10.9-1.4h.9V92.8a.9.9,0,0,0,.2.7l.9.3,1.6.4V95H117.8Z"/><path class="cls-4" d="M160.2,92.7q-3.6,2.9-10.5,2.9t-10.5-2.9q-3.6-2.9-3.6-8.7t3.6-8.7q3.6-2.9,10.5-2.9t10.5,2.9q3.6,2.9,3.6,8.7T160.2,92.7Zm-14.8-2.5a5.8,5.8,0,0,0,1.4,3.2,4.8,4.8,0,0,0,5.9,0,5.9,5.9,0,0,0,1.4-3.2,38,38,0,0,0,.4-6.2,38,38,0,0,0-.4-6.2,5.9,5.9,0,0,0-1.4-3.2,4.8,4.8,0,0,0-5.9,0,5.8,5.8,0,0,0-1.4,3.2A37.9,37.9,0,0,0,145,84,37.9,37.9,0,0,0,145.4,90.2Z"/><path class="cls-4" d="M179.4,73.9q-1,.2-1,.9a1.7,1.7,0,0,0,.2.7l5.3,10.6,4.9-11.5a1.1,1.1,0,0,0,.1-.5q0-.3-.6-.3h-1.2V73h5.2v.7l-1.2.2-.8.2a1.4,1.4,0,0,0-.5.6l-9.2,21.1h-.8L169,74.9a1.6,1.6,0,0,0-.5-.6l-.7-.3-1.4-.4V73h14.2v.7Z"/><path class="cls-4" d="M205.7,91.1q1.6,2.6,5.9,2.6a10.5,10.5,0,0,0,3.8-.6,17.5,17.5,0,0,0,3.4-1.8l.6.9q-4.2,3.4-11.1,3.4t-9.9-3q-3.6-3-3.6-8.8t3.7-8.4q3.7-2.9,10.3-2.9a15.3,15.3,0,0,1,6.3,1.2,8.6,8.6,0,0,1,3.8,3.1,8,8,0,0,1,1.2,4.4,10.7,10.7,0,0,1-.2,2.3H204.1Q204.2,88.4,205.7,91.1Zm-.7-15.5a18.2,18.2,0,0,0-1,6.6h7.6V78.8a9.3,9.3,0,0,0-.7-4,2.7,2.7,0,0,0-2.6-1.3A3.4,3.4,0,0,0,205.1,75.6Z"/></g></g></svg>