<svg xmlns="http://www.w3.org/2000/svg" viewBox="0 0 250.4 166.7"><defs><style>.cls-1{fill:#1c2531;}.cls-2{fill:none;stroke:#99a2aa;stroke-miterlimit:10;stroke-width:1.06px;}.cls-3{fill:#d16659;}.cls-4{fill:#fff;}</style></defs><title>topic-life</title><g id="Layer_2" data-name="Layer 2"><g id="Layer_1-2" data-name="Layer 1"><path class="cls-1" d="M79.8,3.9a79.8,79.8,0,1,0,79.8,79.8A79.8,79.8,0,0,0,79.8,3.9Zm0,94.6A14.8,14.8,0,1,1,94.6,83.7,14.8,14.8,0,0,1,79.8,98.5Z"/><circle class="cls-2" cx="79.8" cy="83.7" r="72.1"/><circle class="cls-2" cx="79.8" cy="83.7" r="67.9"/><circle class="cls-2" cx="79.8" cy="83.7" r="31.2"/><rect class="cls-3" x="83.7" width="166.7" height="166.74" rx="6.2" ry="6.2"/><path class="cls-4" d="M127.3,94.1l1.6-.4.9-.3a.9.9,0,0,0,.2-.7V64.9a.9.9,0,0,0-.2-.7l-.9-.3-1.6-.4v-.8l11-1.4h.9V92.7a.9.9,0,0,0,.2.7l.9.3,1.6.4v.8H127.3Z"/><path class="cls-4" d="M144.2,94.1l1.6-.4.9-.3a.9.9,0,0,0,.2-.7V75.3a.9.9,0,0,0-.2-.7l-.9-.3-1.6-.4v-.8l11-1.4h.9v21a.9.9,0,0,0,.2.7l.9.3,1.6.4v.8H144.2Zm3.9-26a3.9,3.9,0,0,1,0-5.7,6.5,6.5,0,0,1,6.9,0,3.9,3.9,0,0,1,0,5.7,6.5,6.5,0,0,1-6.9,0Z"/><path class="cls-4" d="M164,72.6V68.9a6.8,6.8,0,0,1,2.3-5.7q2.3-1.9,7.8-1.9a16.8,16.8,0,0,1,7.3,1.4l-.6,6h-1q-.9-2.6-1.5-3.8a4.8,4.8,0,0,0-1.4-1.8,4,4,0,0,0-2.5-.7,3.1,3.1,0,0,0-2,.6,2.1,2.1,0,0,0-.6,1.7,8.1,8.1,0,0,0,.2,1.8l.5,1.9.4,1.4a6.6,6.6,0,0,1,.2,1.4v1.3h5.6v1.2h-5.6V92.7a.9.9,0,0,0,.2.7l.9.3,1.7.4v.8H161.2v-.8l1.6-.4.9-.3a.9.9,0,0,0,.2-.7V73.8h-3V72.6Z"/><path class="cls-4" d="M194.1,90.9q1.6,2.7,6,2.7a10.7,10.7,0,0,0,3.8-.6,17.8,17.8,0,0,0,3.5-1.8l.6.9q-4.3,3.5-11.3,3.5t-10-3.1q-3.7-3.1-3.7-8.9t3.7-8.5q3.7-2.9,10.4-2.9a15.5,15.5,0,0,1,6.4,1.2,8.7,8.7,0,0,1,3.9,3.2,8.1,8.1,0,0,1,1.3,4.4,10.8,10.8,0,0,1-.2,2.3h-16Q192.6,88.2,194.1,90.9Zm-.7-15.7a18.5,18.5,0,0,0-1,6.7h7.7V78.5a9.4,9.4,0,0,0-.7-4.1,2.7,2.7,0,0,0-2.6-1.3A3.4,3.4,0,0,0,193.5,75.2Z"/></g></g></svg>