<svg xmlns="http://www.w3.org/2000/svg" viewBox="0 0 215.9 135.9"><defs><style>.cls-1{fill:#5f7e8f;}.cls-2{fill:#7498a3;}.cls-3{fill:none;stroke:#547e8c;stroke-miterlimit:10;}</style></defs><title>ins_1</title><g id="Layer_2" data-name="Layer 2"><g id="Layer_1-2" data-name="Layer 1"><path class="cls-1" d="M22.2,32.7h-.6a.7.7,0,0,0-.7,0A11.2,11.2,0,0,1,18.5,29l-1.4.8-1.6.3-1.6-.2a3.2,3.2,0,0,1-1.3-.7l-.2-.3-.2-.3-.6-.7a3.2,3.2,0,0,1-.4-.9,6.8,6.8,0,0,1-.4-1.7,16.1,16.1,0,0,1-.1-1.9q0-1,0-2.1a12.7,12.7,0,0,1,.2-2.1,35.2,35.2,0,0,1,.8-3.7,26.8,26.8,0,0,1,1.1-3.3l.7-1.6L14,9.1l1.5-3A14.1,14.1,0,0,1,16.8,4l1.5-1.9.3-.3.3-.3.3-.2.2-.3.8-.4.9-.4h2.4l.6.2.6.2.5.2.6.2.2.5a1.1,1.1,0,0,1,.2.6.8.8,0,0,0,0,.4l.2.7.4.7.2.6a4.1,4.1,0,0,1,.1.8,7.9,7.9,0,0,0,.2,1.1,8.2,8.2,0,0,1,.2,1.1,1.3,1.3,0,0,1-.1.4,1.5,1.5,0,0,0-.1.4,2.4,2.4,0,0,0,0,.9,4.8,4.8,0,0,1,.1.9,4,4,0,0,1-.1,1.2q-.1.6-.2,1.2a4.4,4.4,0,0,1,0,1.9l-.4,1.7-.3,1-.4,1-.8,1.9-.8,1.8a12,12,0,0,1-1,1.8l-1,1.6-1.2,1.6-.3.3-.4.4-.4.4-.2.3a.9.9,0,0,0,.1.5l.2.5.3.5.4.6.5.8a3.1,3.1,0,0,1,.5.9.6.6,0,0,0,0,.4A.4.4,0,0,1,22.2,32.7Zm-1-9.5.9-1.5.8-1.6,1.1-2.4a22.5,22.5,0,0,0,1-2.5l.3-.9.3-.9a20.2,20.2,0,0,0,.3-2.4q.1-1.1.1-2.4a8.4,8.4,0,0,0,0-1.1,6,6,0,0,0-.2-1,6.2,6.2,0,0,1,0-.7,2.6,2.6,0,0,0-.1-.6V4.3L25,3.9l-.3-.6-.3-.4-.8-.4-.9-.3a.4.4,0,0,0-.4-.3h-.6a3.3,3.3,0,0,0-1.2.9l-1,.9-.3.5-.5.4a.3.3,0,0,1-.1.3l-.2.3-.8,1-.7,1.2-.5,1-.6,1-.5,1.1L15,11.6l-.5,1-.5,1a1,1,0,0,1-.1.6.9.9,0,0,0-.1.5,4.2,4.2,0,0,0-.5,1.4,6.8,6.8,0,0,1-.4,1.5,3.6,3.6,0,0,1-.1.8,3.5,3.5,0,0,0-.1.7,1.2,1.2,0,0,0,0,.4,1.4,1.4,0,0,1,0,.5,4.8,4.8,0,0,1-.1.8l-.2.7q0,.5.1,1.1a4.1,4.1,0,0,1,0,1.1,2.7,2.7,0,0,0,0,.6v.7a5.9,5.9,0,0,1,0,.6,2.5,2.5,0,0,0,.1.6,4.1,4.1,0,0,0,1,1.7,1.7,1.7,0,0,0,1.7.5l1.4-.6,1.2-.8a3.5,3.5,0,0,1-.3-.8,1.2,1.2,0,0,0-.4-.7l-.5-.4a.4.4,0,0,1-.3-.5h1.1l1,.5.7.7a6.6,6.6,0,0,0,1.1-1.2Z"/><path class="cls-1" d="M38.2,21.9l-.5.5-.5.6-1.6,1.5-1.8,1.3-.6.2h-.6a1.7,1.7,0,0,1-1.1-.4l-.8-.7-.4-.9a1.7,1.7,0,0,1-.1-1.2,6.1,6.1,0,0,1,.4-1.4l.6-1.3.7-1.5.8-1.3h1.1a1.1,1.1,0,0,1,.2.6,2,2,0,0,1-.1.6l-.2.6-.2.6-.7,1.8-.7,1.8a1.5,1.5,0,0,0-.1.5.6.6,0,0,0,.2.5l.4-.2.4-.3.4-.3.4-.3.5-.5.5-.6,1-1,1-1,.7-.6a2.3,2.3,0,0,0,.5-.8.7.7,0,0,0,.5-.4.7.7,0,0,1,.5-.4h1.7a1,1,0,0,1,.5.7,1.6,1.6,0,0,1,0,.4,1.2,1.2,0,0,1,0,.3l-.3.6-.3.7v.5a.5.5,0,0,1-.2.3L40,22.8a3.2,3.2,0,0,0-.1,1.3l.2.7a.6.6,0,0,0,.5.4H41l.6-.3.5-.3.4-.2,2.2-1.4,1.9-1.3,1-.9,1-.9.9-.9.9-.9.3-.3.3-.2h.9c.1.1,0,.1,0,.2H52a.5.5,0,0,0,0,.3l-2.2,2.3L47.6,23A21.5,21.5,0,0,1,45,25.1a17.7,17.7,0,0,1-3.4,1.8,2.4,2.4,0,0,1-1.7-.4,4.9,4.9,0,0,1-1.2-1.3,4,4,0,0,1-.6-1.5A4.8,4.8,0,0,1,38.2,21.9Z"/><path class="cls-1" d="M68.1,17.8c.1.1.1.1.1.2a.4.4,0,0,0,.1.3c.1,0,.1.1,0,.2l-.2.2-.3.3-.3.2-.3.5-.4.6-.5.6-.5.4a.9.9,0,0,0-.4.4l-.5.6-1.3,1.1-1.3,1-.8.4-.7.4-1.6.7-1.4.4-1.4.2-1.4.2a5.2,5.2,0,0,1-2.2-.3l-1.6-1-1.4-1.1a2.8,2.8,0,0,1-1-1.5,3.9,3.9,0,0,1-.1-1.5,5.7,5.7,0,0,1,.3-1.3l.6-1.2.7-1,.3-.5.2-.4.6-.5a1.1,1.1,0,0,0,.5-.5,1.2,1.2,0,0,0,.7-.4l.5-.6.6-.2.6-.3h1.8a1.7,1.7,0,0,1,1,.6v1.5q-.1.8-.1,1.4a6.4,6.4,0,0,1-1.7,2l-2.1,1.7-1,.3-1.1.3a1.7,1.7,0,0,0,.3,1.1l.8.7.9.6,1.5.2,2.7-.4,2.5-.9.7-.3.9-.5.8-.6.4-.4.4-.4.8-.7.9-.8.8-.8,1.1-1,.7-.7.6-.3Q68.1,17.3,68.1,17.8Zm-16.1.8-.2.6-.2.5-.2.5-.2.6A6.9,6.9,0,0,0,53,19.7l1.4-1.5.3-.3.3-.3a1.9,1.9,0,0,0,.3-1,2.8,2.8,0,0,1,.2-1,2.1,2.1,0,0,0-1.3.6l-1,.9c-.2.1-.3.1-.3.3a.5.5,0,0,1-.2.4l-.4.6Z"/><path class="cls-1" d="M80.1,20h.1l-.6.4h-.5l-.3.3-.4.2a8.9,8.9,0,0,1-2.2.9l-2.2.7-.8.2-.7.3.2.3h.1v.6a3.9,3.9,0,0,1-.5,1.5,6.2,6.2,0,0,1-.9,1.2l-1.1,1-1.1.8-.8.3-.8.3h-.1l-1.3.2A1.1,1.1,0,0,1,65,29l-.5-.7-.5-.8-.2-.3q-.1-.1.1-.4l.5-.7.6-.7,1.1-.9,1.2-.7,1.3-.6,1.4-.6-.7-1.1-.7-1.1-.3-.4-.2-.5-.3-.7-.2-.7a1.5,1.5,0,0,1,.1-.7l.3-.6.5-.6.5-.4.5-.3.6-.2,1.4-.7,1.6-.4.3.4a.4.4,0,0,0,.5.1l.2.2.3.2a.6.6,0,0,0,0,.4l.2.3h-.1c-.1,0-.1.1-.1.2H72.6l-1.4.5a3.3,3.3,0,0,0-1.1.7v.5l-.3.5a.9.9,0,0,0-.1.6l.2.5.4.5.5.6.5.6.5.5,1.8-.6,1.7-.6,1.7-.6,1.8-.8h.2s0-.1,0-.1l1.3-.6.7-.2c.1,0,.1.1,0,.2v.5l-.3.7ZM69.8,24.3h-.1q0,.2-.1.1h-.2l-1,.5-1,.4-.9.5-.7.8a.3.3,0,0,1-.1.3.2.2,0,0,0-.1.3h.9l.8-.2,1.3-.5,1.2-.6a3.6,3.6,0,0,0,.9-.9,2.5,2.5,0,0,0,.4-1.3l-.7.3Zm10-3.8-.3.2Z"/><path class="cls-1" d="M96,18.6a1.2,1.2,0,0,1-.5.7l-.8.6-.7.7-.6.5-.6.5-.8.6-2.6,2-2.6,1.8-2,.9-2.1,1-1.4.3a2.2,2.2,0,0,1-1.4-.2l-.2-.2v-.2h-.3l-.9-.8a1.7,1.7,0,0,1-.3-1.4l.3-2a10.6,10.6,0,0,1,.5-1.9l2-5A47.2,47.2,0,0,1,82.9,12a9,9,0,0,0-2.3-.3H77.2l-1,.2-.9.2-.9.4h-.7l-.6.4a.7.7,0,0,1-.6.1A.5.5,0,0,1,72,13a.8.8,0,0,1,0-.6l1-.6.9-.6,1-.4,1.3-.3,2.2-.2h2.3l1.4.2h1.3L84.7,8a28.3,28.3,0,0,0,1.1-2.6l.4-.9.3-.9a2.5,2.5,0,0,1,.4-.9q-.1-.3,0-.4l.2-.3a1.5,1.5,0,0,1,.9,0,.8.8,0,0,1,.5.6v.5a2.4,2.4,0,0,1,0,.5l-.2.3-.2.3a.7.7,0,0,0-.1.4,1.7,1.7,0,0,1-.1.5,2.2,2.2,0,0,1-.3.8l-.3.6a2.5,2.5,0,0,1-.2.9l-.4.8-.4,1-.5,1,2.6-.2h2.6q0,.2-.1.2h-.2q.4.5-.3.8l-.4.2-.4.2H85.3l-.3,1.1a3.1,3.1,0,0,1-.5,1L84,15l-.5.9v.2h-.1a4,4,0,0,0-.4.9l-.3,1.1-.2.4-.2.4-.7,1.7-.2.4-.2.4v.9l-.4,1v.4a6.2,6.2,0,0,0-.1.7,1.1,1.1,0,0,1-.2.6.7.7,0,0,1-.1.6,1,1,0,0,0-.1.6.8.8,0,0,0,.5.7,1.1,1.1,0,0,0,.9.1l.6-.3.6-.2,3.4-2A23.6,23.6,0,0,0,89,22.3l.8-.6.9-.6,1.1-.9.9-.8.9-.8,1-.9h1.2a.6.6,0,0,1-.3.5h.2Z"/><path class="cls-1" d="M95.6,16.9v.6a1.1,1.1,0,0,1,0,.5v.8l-.3.7V20l-.2.4-.3.5v.8l-.4,1.2a3.5,3.5,0,0,0-.1,1.4,1.3,1.3,0,0,0,.2.6l.4.4a4.4,4.4,0,0,0,2.3,0l2.2-.6.7-.3.7-.3,1.4-.7,1.3-.8,1.3-1.1,1.7-1.5,1.6-1.5,1.3-1.2.3-.3.3-.2a.8.8,0,0,1,.6.3.4.4,0,0,1,.1.5c-.1.1-.1.1,0,.2s0,.1,0,.2l-.4.5-.6.8-.6.7-.4.5-1.1.9-1.3,1.1-1.4,1.1-1.3.8-1.1.6-1.2.6-.6.2-.6.2-.6.2-.6.2H94l-.6-.2-.6-.2-.3-.3-.3-.3-.4-.4-.3-.4a2,2,0,0,1-.3-1,5.4,5.4,0,0,1,0-1.1,5.9,5.9,0,0,1,.2-1.1l.4-.9.3-.8.3-.7.7-1.4.8-1.2h1.6Zm1.1-1.5h-.2l-.2-.2-.4-.6-.5-.6a1.6,1.6,0,0,1,.4-1.3l.9-1h1.2a1.1,1.1,0,0,1,.3.5.7.7,0,0,1-.1.6h-.2l-.2.4-.2.4-.3.3-.2.5-.2.4v.2A.2.2,0,0,0,96.7,15.4Z"/><path class="cls-1" d="M123.8,17.3q.1.1,0,.2a.2.2,0,0,0-.1.2q0,.2,0,.2h.2l-.4.8-.5.7-.4.4-.8.7-.8.7-.6.4a1.7,1.7,0,0,1-.9.6l-1.3.4-1.3.5-1.5.3-.9,1-1,1-1.1,1.1-1.1.9-.6.2-.7.2-.4.2h-.4l-.8-.4-.7-.5-.7-.6-.6-.6a2.9,2.9,0,0,1-.4-1.1,7.5,7.5,0,0,1-.1-1.3,3.1,3.1,0,0,1,.2-1.2l.4-1.1a8.3,8.3,0,0,1,1-1.9,9.1,9.1,0,0,1,1.4-1.6l.7-.8a1.5,1.5,0,0,1,.9-.6h.6l.7-.4a.9.9,0,0,1,.8-.3l.6.2.6.2.7.2h.7l.2.2.3.2.3.3.3.7.3.8a4.4,4.4,0,0,1,0,.7v.9c0,.3,0,.6-.1.8v.7l2-.7,1.6-.8,1.3-.9,1.1-1.1.3-.4.2-.3h1Zm-13.1,3.9a2.1,2.1,0,0,1-.6-.8,4.4,4.4,0,0,1-.2-1.1l-.4.5-.3.6-.4.5-.4.6-.3.6-.2.7-.4.9a1.5,1.5,0,0,0-.1.9v.6a1.7,1.7,0,0,0,.2.6l.2.2.3.2.3.2h.9l.5-.4.5-.5,1.3-1.2,1.1-1.3h0a2.1,2.1,0,0,1-1.3-.7Zm3.8-1.6V18.4l-.2-.6-.3-.3h-.4l-.7.3-.6.5-.3.5a1.8,1.8,0,0,0-.2.6,1.5,1.5,0,0,0,.2.8l.4.7a1.9,1.9,0,0,0,.8.6l1.1.3a2.3,2.3,0,0,1,.3-.9,2,2,0,0,0,.2-1.1Z"/><path class="cls-1" d="M129.1,19.1l-1.3.8-1.3.9-2,2-1.9,2.2-.9,1.1a4.3,4.3,0,0,1-1.1.9.7.7,0,0,1-.3-.5.9.9,0,0,0-.3-.6.5.5,0,0,1-.4-.3,1.2,1.2,0,0,1,0-.6,7.4,7.4,0,0,1,1-2.3,19.8,19.8,0,0,0,1.3-2.2l.6-1.1.5-1.2a7.7,7.7,0,0,0,.4-1.4l.3-1.5h.8a.5.5,0,0,0,.4.2.3.3,0,0,1,.3.3,3.8,3.8,0,0,1,0,.7,6.3,6.3,0,0,1-.1.8h-.1v.2a.2.2,0,0,1,0,.2,3.4,3.4,0,0,1-.4,1,4.2,4.2,0,0,0-.4,1.1l-.4,1-.4.8,2.3-2,2.5-1.8,1-.4a1.7,1.7,0,0,1,1.1-.2h.4l.4.2.2.3.2.4a1.5,1.5,0,0,1-.1.8l-.3.8-.2.6-.2.6-.5,1.1-.6,1.1a5.8,5.8,0,0,0-.4,1.1,2.5,2.5,0,0,0,0,.8q0,.4.3.5h.4l.4-.2,1.1-.5,1-.5,2.4-1.6,2.3-1.6,1.6-1.3,1.6-1.5.5-.5.5-.4.6-.2h.7l-.2.2-.2.2.2.2v.2l-.3.5-.4.6-.7.7-.9.7-.8.7-.4.3-.4.3-1,.8-1.6,1.1-1.6,1-1.2.8-1.3.7h-.8l-.8.3h-.9l-.4-.2-.4-.4-.9-.8a1.5,1.5,0,0,1-.3-1.2,5.5,5.5,0,0,1,.3-1.7l.6-1.5.6-1.1Z"/><path class="cls-1" d="M160.3,5.1c0,.1,0,.1-.1.1h-.1a.4.4,0,0,0,.1.2h.1l-.2.2q-.1.2.1.4H160v.3a1.1,1.1,0,0,0-.1.4l-.2.2v.2a.3.3,0,0,0,0,.2.4.4,0,0,1,0,.2l-.3.3a.4.4,0,0,0-.1.5h-.2l-.7,1.3-.7,1.2a8.5,8.5,0,0,0-1.3,1.7,10.6,10.6,0,0,1-1.3,1.7l-.3.3-.3.3-.2.2-.2.2-.2.2-.3.2a.7.7,0,0,1-.3.4l-.5.4-.3.3-.4.3-.4.4-.4.3-.2.3-.2.2a3.8,3.8,0,0,1-.2.8l-.3.8v.5a1.8,1.8,0,0,1-.3.7,1.8,1.8,0,0,0-.3.7,5.7,5.7,0,0,0-.3,1.5,1.8,1.8,0,0,0,.3,1.4,2,2,0,0,0,1.4.5,6.6,6.6,0,0,0,2.3-.6l1.9-1,2.3-1.4,2-1.6,1-1,1-1h.2a.4.4,0,0,1,.2-.3l.5-.3.7-.3.7-.2h.6a.9.9,0,0,1-.2.5h.2L163.1,20l-1.3,1.1c-.1,0-.1,0,0,.1s0,.1,0,.1l-2.3,2a20.3,20.3,0,0,1-2.6,1.8l-1,.5-1.1.5-1.2.5-1.3.3h-1.3l-1.1-.2-.2-.2-.2-.2-.6-.2-.5-.3a2.3,2.3,0,0,1-.7-1.3,5.4,5.4,0,0,1,0-1.6,8.5,8.5,0,0,1,.3-1.6l.4-1.3h-.2l.4-.7c0-.1,0-.1.1-.2v-.2l.4-.8.3-.8.7-1.8.7-1.7.4-.8.4-.8.9-1.7.9-1.7,1.1-1.7,1.2-1.7.9-.9,1-1h.7l.9.2a1.2,1.2,0,0,1,.8.3.5.5,0,0,0,.1.4.3.3,0,0,1-.1.4h.2Zm-2,1,.2-.6a1.5,1.5,0,0,0,0-.7,1.5,1.5,0,0,0-.8.6,2.2,2.2,0,0,1-.7.7,5.7,5.7,0,0,1-.9,1.3,3.1,3.1,0,0,0-.7,1.4h-.1l-.8,1.6-.8,1.6.2-.3c.1-.2.2-.3.3-.3l-.2.4a.7.7,0,0,0-.1.4l-.5.9-.4.9-.3.6-.2.3a.4.4,0,0,0,0,.3l.9-1.2.9-1.3.9-1.2.9-1.2.2-.4.2-.4.5-.7.4-.8.2-.5.3-.5Z"/><path class="cls-1" d="M164.4,16.9v.6a1.1,1.1,0,0,1,0,.5v.8l-.3.7V20l-.2.4-.3.5v.8l-.4,1.2a3.5,3.5,0,0,0-.1,1.4,1.3,1.3,0,0,0,.2.6l.4.4a4.4,4.4,0,0,0,2.3,0l2.2-.6.7-.3.7-.3,1.4-.7,1.3-.8,1.3-1.1,1.7-1.5,1.6-1.5,1.3-1.2.3-.3.3-.2a.8.8,0,0,1,.6.3.4.4,0,0,1,.1.5c-.1.1-.1.1,0,.2s0,.1,0,.2l-.4.5-.6.8-.6.7-.4.5-1.1.9-1.3,1.1-1.4,1.1-1.3.8-1.1.6-1.2.6-.6.2-.6.2-.6.2-.6.2h-3.9l-.6-.2-.6-.2-.3-.3-.3-.3-.4-.4-.3-.4a2,2,0,0,1-.3-1,5.4,5.4,0,0,1,0-1.1,5.9,5.9,0,0,1,.2-1.1l.4-.9.3-.8.3-.7.7-1.4.8-1.2h1.6Zm1.1-1.5h-.2l-.2-.2-.4-.6-.5-.6a1.6,1.6,0,0,1,.4-1.3l.9-1h1.2a1.1,1.1,0,0,1,.3.5.7.7,0,0,1-.1.6h-.2l-.2.4-.2.4-.3.3-.2.5-.2.4v.2A.2.2,0,0,0,165.5,15.4Z"/><path class="cls-1" d="M189.6,20h.1l-.6.4h-.5l-.3.3-.4.2a8.9,8.9,0,0,1-2.2.9l-2.2.7-.8.2-.7.3.2.3h.1v.6a3.9,3.9,0,0,1-.5,1.5,6.2,6.2,0,0,1-.9,1.2l-1.1,1-1.1.8-.8.3-.8.3h-.1l-1.3.2a1.1,1.1,0,0,1-1.1-.3l-.5-.7-.5-.8-.2-.3q-.1-.1.1-.4l.5-.7.6-.7,1.1-.9,1.2-.7,1.3-.6,1.4-.6-.7-1.1-.7-1.1-.3-.4-.2-.5-.3-.7-.2-.7a1.5,1.5,0,0,1,.1-.7l.3-.6.5-.6.5-.4.5-.3.6-.2,1.4-.7,1.6-.4.3.4a.4.4,0,0,0,.5.1l.2.2.3.2a.6.6,0,0,0,0,.4l.2.3h-.1c-.1,0-.1.1-.1.2h-1.6l-1.4.5a3.3,3.3,0,0,0-1.1.7v.5l-.3.5a.9.9,0,0,0-.1.6l.2.5.4.5.5.6.5.6.5.5,1.8-.6,1.7-.6,1.7-.6,1.8-.8h.2s0-.1,0-.1l1.3-.6.7-.2c.1,0,.1.1,0,.2v.5l-.3.7Zm-10.4,4.3h-.1q0,.2-.1.1h-.2l-1,.5-1,.4-.9.5-.7.8a.3.3,0,0,1-.1.3.2.2,0,0,0-.1.3h.9l.8-.2,1.3-.5,1.2-.6a3.6,3.6,0,0,0,.9-.9,2.5,2.5,0,0,0,.4-1.3l-.7.3Zm10-3.8-.3.2Z"/><path class="cls-1" d="M205.4,18.6a1.2,1.2,0,0,1-.5.7l-.8.6-.7.7-.6.5-.6.5-.8.6-2.6,2-2.6,1.8-2,.9-2.1,1-1.4.3a2.2,2.2,0,0,1-1.4-.2l-.2-.2v-.2h-.3l-.9-.8a1.7,1.7,0,0,1-.3-1.4l.3-2a10.6,10.6,0,0,1,.5-1.9l2-5a47.2,47.2,0,0,1,2.1-4.7,9,9,0,0,0-2.3-.3h-3.4l-1,.2-.9.2-.9.4H183l-.6.4a.7.7,0,0,1-.6.1.5.5,0,0,1-.3-.4.8.8,0,0,1,0-.6l1-.6.9-.6,1-.4,1.3-.3,2.2-.2h2.3l1.4.2h1.3L194.2,8a28.3,28.3,0,0,0,1.1-2.6l.4-.9.3-.9a2.5,2.5,0,0,1,.4-.9q-.1-.3,0-.4l.2-.3a1.5,1.5,0,0,1,.9,0,.8.8,0,0,1,.5.6v.5a2.4,2.4,0,0,1,0,.5l-.2.3-.2.3a.7.7,0,0,0-.1.4,1.7,1.7,0,0,1-.1.5,2.2,2.2,0,0,1-.3.8l-.3.6a2.5,2.5,0,0,1-.2.9l-.4.8-.4,1-.5,1,2.6-.2h2.6q0,.2-.1.2h-.2q.4.5-.3.8l-.4.2-.4.2h-4.4l-.3,1.1a3.1,3.1,0,0,1-.5,1l-.5.9-.5.9v.2h-.1a4,4,0,0,0-.4.9l-.3,1.1-.2.4-.2.4-.7,1.7-.2.4-.2.4v.9l-.4,1v.4a6.2,6.2,0,0,0-.1.7,1.1,1.1,0,0,1-.2.6.7.7,0,0,1-.1.6,1,1,0,0,0-.1.6.8.8,0,0,0,.5.7,1.1,1.1,0,0,0,.9.1l.6-.3.6-.2,3.4-2a23.6,23.6,0,0,0,3.2-2.2l.8-.6.9-.6,1.1-.9.9-.8.9-.8,1-.9h1.2a.6.6,0,0,1-.3.5h.2Z"/><rect class="cls-2" x="0.5" y="47.1" width="214.9" height="13.47" rx="4.4" ry="4.4"/><rect class="cls-3" x="0.5" y="65.8" width="214.9" height="13.47" rx="4.4" ry="4.4"/><rect class="cls-3" x="0.5" y="84.5" width="214.9" height="13.47" rx="4.4" ry="4.4"/><rect class="cls-3" x="0.5" y="103.2" width="214.9" height="13.47" rx="4.4" ry="4.4"/><rect class="cls-3" x="0.5" y="121.9" width="214.9" height="13.47" rx="4.4" ry="4.4"/></g></g></svg>