<svg xmlns="http://www.w3.org/2000/svg" viewBox="0 0 2053.6 1363.3"><defs><style>.cls-1{fill:#fcf8f4;}</style></defs><title>logo-white_1</title><g id="Layer_2" data-name="Layer 2"><g id="Layer_1-2" data-name="Layer 1"><path class="cls-1" d="M2051.8,1102.4c-4-2-6-11-6-11s-1-2-9-5-13,0-13,0-54,57-119,120-112,55-112,55-44.5-5.5-67-42c-21.4-34.7-21-67-21-67,46-3,89-32,116-64s13-51,13-51-2-10-9-9-20-3-20-3-8-10-68,21-115,112-115,112c12-58,95.5-157.5,118.5-180.5s76.5-112.5,98.5-156.5c15.7-31.4,18.7-47.5,19.1-54.2a7.7,7.7,0,0,0-2.4-6.1c-4.2-3.9-12.6-11.5-14.7-10.7-6.5,2.5-20,2-37,11s-59,86-79,117-126,227-126,227a545.3,545.3,0,0,0-50,43c-31.6,30.5-114,86-114,86s-58,30-92,25-23-42-20-68,30.5-79.5,30.5-79.5c43.5-34.5,104-95,131.5-143.5,19.5-34.4,52.5-85.5,57-118,4.2-30.6,3-46,0-52s-28-6-33-4c-1.9.7-4.5.7-7.2.3a18.4,18.4,0,0,0-16.2,5.6l-8.6,9.2c-37,30-49,59-89,128s-76,173-76,173l-48,42s-6,4-60,51c-38.6,33.6-61.3,44.7-71.2,48.3a147.4,147.4,0,0,0-13.7,5.8c-10.2,5-28.2,12.6-41.1,11.9-9.5-.5-13-9.7-14.1-18.9a58.8,58.8,0,0,1,3.1-26.9c3.1-8.7,9.2-25.4,21-56.2,21-55,14-60,11-70s-13-13-25-16-17.5,1.5-17.5,1.5-2.5-1.5-6.5-3.5-10-9-10-9-8.5-8.5-17.5-9.5-14-4-14-4h0a29.5,29.5,0,0,0-20.4,3.7l-32.6,19.3c-39,23-62,56-77,92-9.5,22.8-8.6,42.5-6.6,53.8a38.3,38.3,0,0,0,6.8,16l11.8,16.3s21,25,59,3c31.1-18,74.1-72.7,88.8-92.1a.9.9,0,0,1,1.6.9c-7,20.3-10,60.7-10,60.7s-1,28,19,53,52,22,52,22,5,0,53-17,134-113,134-113-4,22-6,41,8,41,15,47,24,12,24,12l14,8c14,8,39,4,39,4,76-9,196-111,196-111-12.6,18.1-22.7,71.1-26.5,92.7a21.4,21.4,0,0,0,4.1,16.7l4.3,5.6s4,9,16,9,14-8,14-8,29.5-45.5,38-57c7.1-9.7,44-75,48-80s7-5,7-5l8.8,19.7a59.4,59.4,0,0,1,4.1,13.3c2.3,12.6,10,42.6,33.1,68,30,33,64,36,64,36s41.5,21.5,114-29c59.5-41.4,153-147,153-147S2055.8,1104.4,2051.8,1102.4Zm-291-232c12-15,23-40,23-40s10.5-18.5,14-24c2.1-3.2,11.2-12.4,16.2-16.1a1.2,1.2,0,0,1,1.9,1.3c-3.4,12.1-21.6,54.9-63.1,117.7,0,0-25,43-40,51C1712.8,960.4,1748.8,885.4,1760.8,870.4Zm-370.5,147.5s29.5-67.5,77-148c25.2-42.7,33.5-47.5,33.5-47.5s8-10,10-4,3,20-2,26-24,53-33,64-45.5,84.5-94.5,133.5Zm-372.5,98.5c-9,10-79,98-79,98s-15,22-25,21-8-6-8-6-3-31,10-52,53.6-67.7,78-82c8.3-4.9,13.6-7.7,16.7-9.3a43.8,43.8,0,0,0,4.5-2.8c1.4-1,3.9-1.2,5.9,6.1C1023.8,1100.4,1026.8,1106.4,1017.8,1116.4Zm750-53c45-26,37-12,37-12s-24,46-77,66l-30,9S1722.8,1089.4,1767.8,1063.4Z"/><path class="cls-1" d="M1917.4,220.4c1.3-12.5,5.2-22.3,16.4-28.2,3.8-2,8.8-8.7,13.1-8.6,15.1.2,26.9,5.8,29.7,12.5s7.8,31.3-15.8,69.4-57.7,64.4-63.7,65.1-13.5-3.4-5.9-7.3l22.1-25.7a128.7,128.7,0,0,0,14-19.7l15.1-22.6c.9-1.5.6-4.3-1.2-4.4-12.5-.7-21.9-9.9-23.6-17.5C1916.7,229.8,1916.9,225,1917.4,220.4Z"/><path class="cls-1" d="M1068.3,325.9s-1.9-17.1,6.5-25,17.5-20,17.5-20a43.2,43.2,0,0,1,16.7.1,25.3,25.3,0,0,0,5.6.8,4.6,4.6,0,0,1,3.9,2c2.9,4.4,6.8,13,.6,21.1a28.8,28.8,0,0,0-3.3,5.4c-2.5,5.4-7.8,16.2-12.3,21.7a34.2,34.2,0,0,0-3.7,5.4c-2.1,4-3.8,10.6-5.3,13.9s-9.1-.4-9.1-.4S1069.3,333.9,1068.3,325.9Z"/><path class="cls-1" d="M30.8,487.2a201.5,201.5,0,0,1,8-27.3q5.8-16,13.1-31.6t13.8-31.6Q81,363.9,95.2,331.9a574.6,574.6,0,0,0,24.4-65.5q18.9-41.5,37.1-85.1L213.8,11.8A10.9,10.9,0,0,1,218,6.2a37,37,0,0,1,12.4-4.8A48.8,48.8,0,0,1,243.2,0a9.3,9.3,0,0,1,8.2,6.1q1.1,3,2.7,6.5a17.2,17.2,0,0,1,0,13.8L197.3,185l-13.1,35.6Q178.4,233,171.9,245a246.8,246.8,0,0,0-12.4,26.5q-2.9,8-6.2,15.3t-7.2,15.1L91.9,431.1a97.8,97.8,0,0,1-5.4,16,169.5,169.5,0,0,1-8.4,16.5,82,82,0,0,0-8,18.9q-1.5,5.1-2.5,10.2T65,503.5a88.3,88.3,0,0,1-4.7,16.4L43.2,575.5a8.1,8.1,0,0,0-.6,6.7,1.5,1.5,0,0,0,1.8,1l14.5-3.4a94.9,94.9,0,0,0,17.1-5.8q10.2-3.6,22.2-8.7l48.7-15.3,12.7-2.9q12.4-2.2,24.4-5.1a203,203,0,0,1,24.4-4.4l45.1-6.9,9.8-2.2a39,39,0,0,1,8.7-1.1,14.6,14.6,0,0,1,7.6,2.2q3.6,2.2,4.4,7.3a31.2,31.2,0,0,0,1.5,6.2,6.5,6.5,0,0,1-1.5,6.8,26.5,26.5,0,0,1-8.4,5.5,101.2,101.2,0,0,1-17.1,5.5q-9.5,2.2-19.6,3.6l-69.1,16q-14.6,3.6-29.8,6.5a80.6,80.6,0,0,0-21.7,7.2,60.5,60.5,0,0,1-11,4.5q-5.7,1.6-11.3,3.6-8.4,2.9-15.6,5.8h0a21.9,21.9,0,0,1-8.2,3.2L30.5,619a14.4,14.4,0,0,1-6.5-.6,32.7,32.7,0,0,1-8.9-5.1h0a33.6,33.6,0,0,1-11.3-17L.2,583.5a17.8,17.8,0,0,1,.7-8.7,25,25,0,0,1,5.1-10.2,35,35,0,0,0,5.8-10.2,27.6,27.6,0,0,0,1.8-7.6,26.6,26.6,0,0,1,1.8-7.6ZM187.5,74.5"/><path class="cls-1" d="M709.6,1338.9A93.7,93.7,0,0,1,699,1363q-8.9,1.3-13.1-2.5l-9.7-8.8a31.2,31.2,0,0,1-5.7-8.2q-1.9-4.1.1-12.8a178.5,178.5,0,0,1,5.1-18.3q3.2-9.5,5.9-19t5.5-18.2a184.2,184.2,0,0,1,6.3-18.2q12.6-37.2,22.1-75a670.3,670.3,0,0,1,22.8-73.3q13.4-35.6,27.9-69.5t26.4-71.2q2.8-9.5,4.7-18.7a73.8,73.8,0,0,1,6.3-17.8q16.9-42.7,34.2-87T874,760a.8.8,0,0,0-.6-1.1,47.1,47.1,0,0,0-14.2.8l-17,3c-2.1.8-11.7,1-11.7,1-2.2.3-3.9.3-6,.8a108.6,108.6,0,0,0-19.4,3.3q-7.3,2.1-16-.6l-5.5-2.6C776.8,762,768,753,768,753c-1-2.4-1.2-4.2-.6-5.2q.9-4,6.2-4.2a69.9,69.9,0,0,0,11.7-1.6q8.9-1.3,23.8-4.7l24.7-5.5A149.5,149.5,0,0,0,864,727a195.6,195.6,0,0,1,31.1-5.6l42.1-8.8a467.5,467.5,0,0,0,50.8-6.1q26.7-4.6,53.7-8a457,457,0,0,1,52.7-3.6,136.6,136.6,0,0,1,44.3,6.6,3.4,3.4,0,0,1,1.9,4.9,11.5,11.5,0,0,1-3.9,4.1,9.4,9.4,0,0,0-3.7,4.3,18.7,18.7,0,0,1-8.6,8.9h-.1a5.7,5.7,0,0,1-2.8.6,234.9,234.9,0,0,0-37.2,1.8q-19.3,2.5-37.9,5.8-33.1,5.2-64.5,8.4A371.2,371.2,0,0,0,923.1,751a2.6,2.6,0,0,0-1.6,1.2l-3.3,5.7a11.3,11.3,0,0,0-1.4,3.2,15.9,15.9,0,0,1-.9,2.6l-15.8,36.4q-1.8,5.6-3.7,11.9L840.1,964.8a135.2,135.2,0,0,1-6.1,12.6q-3.5,6.3-6.9,13.4l-9.9,29.3q-3.6,9.5-7.9,18.6t-8.7,17.7a186.5,186.5,0,0,0-8,20.6,188.2,188.2,0,0,1-8.9,22.1q-4.4,11.1-9.2,21.7l-33.5,110.6a265.7,265.7,0,0,0-11.6,40.9Z"/><path class="cls-1" d="M1864.7,416.7a5.5,5.5,0,0,0-6.6-5.9c-4.5,1-12,3.9-24.3,11.1-28,16.5-149.3,55-149.3,55-4.4-2.5-38.2-48.3-38.2-48.3s-4.3-8.7-2.2-15.8,2.3-5.8,8.8-17.3,38.7-22.3,38.7-22.3,25.3-9.7,31.8-5.3c4,2.7,6.3,1.6,7.4.4a33.5,33.5,0,0,1,3.3-3.1c2.3-1.9,3.2-4.7,1.4-10.7-1.1-3.5-.1-2.5-3.1-9.5a11.5,11.5,0,0,0-3.7-4.5,9.6,9.6,0,0,0-2.8-1.6,39,39,0,0,1-4.5-2l-3-1.4a33.2,33.2,0,0,0-20.9-3.9h-.5c-.7.3-22.5,9.9-49.7,20.1s-39.2,45.9-39.2,45.9l-39.3,38.7s-66,60-129,93-111,17-124,8-26-32-12-66,31-40,52-53c11.9-7.4,20.6-8.6,25.9-8.3a11.4,11.4,0,0,1,8.8,5.1,65.8,65.8,0,0,1,4.3,7.3,19.4,19.4,0,0,0,6.5,7,6.8,6.8,0,0,0,6.6.6c3.5-1.6,8.9-4,10.9-4.6s-1-19-5-21a27.3,27.3,0,0,1-6.5-4.5,114.6,114.6,0,0,0-18-12,82.6,82.6,0,0,1-11-7c-1.5-1.1-5.8-1.8-7.9-2.1a17.6,17.6,0,0,1-3.8-.9c-1.4-.5-3.9-1-8.4-1a37.6,37.6,0,0,0-12,2s-13,7-28,16-28.5,24.1-28.5,24.1-52,59.4-133,101.4-112.5,24.5-112.5,24.5c-10-4-12-18-10.6-35.6s17.6-58.4,19.6-60.4,13-18,15-24,11-10,16-17,6.4-17,6.4-17,2.6-6-8.9-10.6-37.6,1.6-37.6,1.6c-10,10.7-20.5,31-24.9,39.8a23.9,23.9,0,0,1-6,7.7c-15,12.6-70.8,59-127.9,97.1-53.5,35.7-65.6,36.7-68.4,35.7a7,7,0,0,0-2.4-.5c-3.4,0-11.6-1.4-21.6-12.8-13.3-15-4.7-36,.1-49.1s54.2-79.9,57.5-98.7-6.5-21.5-6.5-21.5-12.8-5.7-23-7.6-30.8.9-39,4.8-23.9,6.2-28.6,7a.6.6,0,0,1-.7-.9l2.2-4.8a16.9,16.9,0,0,1,3.5-5c25.8-25.7,43.5-62,43.5-62a87.5,87.5,0,0,0,12.2-22.1c3.8-10.2,2.7-20.7,2-24.8a20,20,0,0,1-.2-2.6c-.1-1.6-1.7-4.7-13.7-5.2a69,69,0,0,1-17.7-2.6,7.7,7.7,0,0,0-7.9,2.2c-15.4,16.5-36,44.4-36,44.4s-7.8,10.4-18.2,36.3-2.6,36.3-2.6,36.3-13,20.8-23.3,31.1-59.1,40.5-59.1,40.5q-23.3,12.7-45.5,26.9T548.3,500q-20.5,13.9-40.6,26.4a.7.7,0,0,1-1.1-.9q5.2-13.2,8.3-23.4a179.3,179.3,0,0,1,9.8-24.7q5.8-13.8,12.7-26.5a261.4,261.4,0,0,0,12-25.1q1.4-3.6,4-11.3c1.7-5.1,2.3-8.8,1.8-11.3s-3-6.4-7.6-7.6l-12.7-3.3a3.2,3.2,0,0,0-1.8,2.2,3.3,3.3,0,0,1-1.8,2.2,7.8,7.8,0,0,0-4.7-1.1,11.4,11.4,0,0,1-3.8-.1,2.5,2.5,0,0,0-2.6,1.2,90.1,90.1,0,0,0-7.5,18.5,53,53,0,0,1-9.1,18.5,93.5,93.5,0,0,1-13.8,13.8q-7.6,6.2-14.6,13.1c-4.7,4.6-9.4,9.2-14.3,13.7l-16.2,14.7q-16,13.1-32.7,25.8a143.6,143.6,0,0,1-37.2,20.6.5.5,0,0,1-.7-.7l1.5-5.4a20.1,20.1,0,0,0,.7-5.5,135.7,135.7,0,0,1,7.3-28q5.1-13.4,10.2-27.3c1-3.9,3.3-6.9,4.4-10.2l14.5-42.2a108.6,108.6,0,0,0,5.1-19.3,48,48,0,0,0-.7-18.4v-.3a12.2,12.2,0,0,0-7.2-5.3,19.2,19.2,0,0,0-9.1,0,47.8,47.8,0,0,0-8.3,2.8,3.4,3.4,0,0,0-1.7,1.7l-2.9,3-3.4,5.3a200.1,200.1,0,0,1-10.5,30.5q-6.9,16-13.8,32.4t-12.7,33.5a122,122,0,0,0-6.5,34.5q-.7,8,1.1,12.4a19.5,19.5,0,0,0,5.1,7.3,38.7,38.7,0,0,0,7.3,5.1,34.1,34.1,0,0,1,7.6,5.8,24.6,24.6,0,0,1,4,5.5,11,11,0,0,0,4.7,4.7q5.8,2.2,15.3-.7t15.3-5.1a62.2,62.2,0,0,0,16.7-9.5l16-13.1q11.6-10.2,22.2-18.2a142.5,142.5,0,0,0,16.6-14.6.7.7,0,0,1,1.1.7q-3.3,10.3-7.1,20.9t-8.7,21.4h0l-6.5,20.3-2.2,8.1q-3.6,9.4-8.7,13.8t-10.8,10.1h-.1a302.1,302.1,0,0,0-27.9,22.1q-13.5,12-25.8,24.4T352.7,660l-25.9,26.4-32.2,37.9a361.7,361.7,0,0,0-31.6,43.3l-13.5,22.5q-6.9,11.6-12.7,24T224,839.7a122,122,0,0,0-9.1,26.9,116.9,116.9,0,0,0-2.2,14.5,36,36,0,0,0,.9,11.6c.7,3,6.8,4.8,6.8,4.8l16.3,6.2h.1a21.8,21.8,0,0,1,6.1,3.6,13.4,13.4,0,0,0,6.2,2.9,20.1,20.1,0,0,0,14.2-2.2,22,22,0,0,1,10.1-3,17.2,17.2,0,0,0,7.8-2.5l1.4-.7c21.9-10.6,38.3-28,38.3-28l.4-.2A654.3,654.3,0,0,0,413,737.8q38.2-74.8,70.9-156.2l.2-.2a17.8,17.8,0,0,1,5.3-3.9,12.7,12.7,0,0,0,4-3.1,30.5,30.5,0,0,1,4.2-3.7q26.3-19.3,52.5-37.6a636.4,636.4,0,0,1,58.2-36h0A523.4,523.4,0,0,1,658.9,468L716,430a67.2,67.2,0,0,0,20.9-22.3l.6-1.1a1.7,1.7,0,0,1,2.7-.2c3.1,3.7,10.8,11,22.8,8.9s32.8-8.6,40-11a1,1,0,0,1,1.2,1.5c-8.9,14-53.6,85.5-50.7,115.9,0,0-2.3,18.8,11.5,31.3s28.7,37.5,64.3,36.1a47.3,47.3,0,0,0,16.2-3.4s32.2-10.2,49.2-22.2L991.2,495s-4.9,28.4,9.4,48.9,17.8,19.7,17.8,19.7,17.5,12.8,30.5,12.8,52.4,11.8,129.2-29.6c64-34.5,83.4-52.4,88-57.4a.7.7,0,0,1,1.3.5c.3,9.7,3.5,52.2,38,69a284.6,284.6,0,0,0,59,21s37.1,10.3,122-34c23-12,32-21,32-21s73-61,85-80,12.2-18.8,12.2-18.8,4.8,12.8,10.8,20.8,28,42,28,42-72.4,30.1-86.7,44-13.4,12.6-27.6,29.6h-.1c-4.3,5.2-4.5,17.2-1.6,23.3,6.2,13,20,28.2,25,30.7s26.5,5.8,52.8-2.2,39.6-22,63.8-40.4,27.5-47.7,29.8-57.5c1.5-6.6-1.5-12.6-3.3-15.5-.2-.4-.2-.8.1-1l1.7-1.1c4.4-2.4,9-3.5,13.9-4.6,36.3-8.2,93.2-30.3,102.6-36.9s10-4,26-16A34.8,34.8,0,0,0,1864.7,416.7ZM420.3,636.5a723.7,723.7,0,0,1-42.6,88.9l-24,43.6a364.4,364.4,0,0,1-26.2,40.7L292,853.5A111,111,0,0,1,252.3,881a4.7,4.7,0,0,1-6.5-4.5h0a12,12,0,0,0-.2-3.5,22.8,22.8,0,0,1,.8-11.3,307.8,307.8,0,0,1,27.4-64.5A409.4,409.4,0,0,1,316.3,736a574,574,0,0,1,50.5-52.7q25.8-23.8,52.4-47.5A.7.7,0,0,1,420.3,636.5ZM1677,512c-5.6,33.3-27.9,43-37.7,47.9s-18,10-39,18-28,1-29,0,3-10,8-18,19-16,34-22c13.2-5.3,53-23.1,62.1-27.2A1.1,1.1,0,0,1,1677,512Z"/></g></g></svg>